<svg id="Layer_1" data-name="Layer 1" xmlns="http://www.w3.org/2000/svg" viewBox="0 0 64 64"><title>coin</title><path d="M53.48,48.07H47.59v-5.9a1.79,1.79,0,0,0-2-2H43.2l.57-.45a19.65,19.65,0,0,0,2.61-28.9A19.53,19.53,0,0,0,18.81,9.64,18.65,18.65,0,0,0,12.49,23c-.3,6.63,2.3,12.23,7.72,16.67l.54.45H10.42a1.75,1.75,0,0,0-1.93,1.94c0,2.5,0,5,0,7.49a1.76,1.76,0,0,0,1.93,2h6v5.92a1.77,1.77,0,0,0,2,2H53.5a1.76,1.76,0,0,0,2-2c0-2.45,0-4.91,0-7.36A1.78,1.78,0,0,0,53.48,48.07ZM15.91,24A16.09,16.09,0,1,1,32,40.15H32A16.16,16.16,0,0,1,15.91,24ZM12,48V43.64H44.1V48ZM52,56H19.92V51.57H52Z"/><path d="M34.28,33.22a.84.84,0,0,0-.56.78A1.73,1.73,0,0,1,32,35.69,1.76,1.76,0,0,1,30.27,34v-.5l-.15-.06a5.67,5.67,0,0,1-3.75-4.66,3.25,3.25,0,0,1,.1-1.4A1.63,1.63,0,0,1,28,26.28l.22,0a1.78,1.78,0,0,1,1.5,1.5,1.09,1.09,0,0,1,0,.18,1.09,1.09,0,0,0,0,.18A2.23,2.23,0,0,0,32,30.24h.12a2.23,2.23,0,0,0-.07-4.45,5.72,5.72,0,0,1-5.68-6.55,5.65,5.65,0,0,1,3.24-4.3,1,1,0,0,0,.69-1A1.68,1.68,0,0,1,32,12.42V12.3h0v.12A1.69,1.69,0,0,1,33.7,14a1.07,1.07,0,0,0,.72,1,5.54,5.54,0,0,1,3.26,5,1.72,1.72,0,0,1-1.62,1.87H36a1.75,1.75,0,0,1-1.73-1.75A2.25,2.25,0,0,0,32,17.87h-.06a2.23,2.23,0,1,0,.13,4.46,5.74,5.74,0,0,1,5.5,4.46A5.67,5.67,0,0,1,34.28,33.22Z"/></svg>