<svg id="Layer_1" data-name="Layer 1" xmlns="http://www.w3.org/2000/svg" viewBox="0 0 64 64"><title>eosio</title><path d="M32,4.24l.35.46,12.49,17a2.3,2.3,0,0,1,.37.83q2.69,12.81,5.37,25.62a.55.55,0,0,1-.3.7q-8.94,5.34-17.86,10.72a.69.69,0,0,1-.83,0q-9-5.4-17.91-10.75c-.36-.21-.33-.43-.27-.76q2.07-9.82,4.12-19.67c.42-2,.82-3.94,1.24-5.9a2.28,2.28,0,0,1,.35-.78L31.68,4.65C31.77,4.52,31.88,4.4,32,4.24Zm0,48.55c.11-.29.18-.46.24-.64q4.88-14.52,9.75-29a.93.93,0,0,0-.17-1q-4.76-6.45-9.48-12.92c-.1-.14-.21-.26-.35-.44l-.36.48q-4.69,6.4-9.4,12.8A1.1,1.1,0,0,0,22,23.19q4.89,14.51,9.73,29C31.83,52.36,31.9,52.51,32,52.79Zm1.94,2.73c.22-.11.33-.15.44-.22q6.45-3.87,12.91-7.74a.52.52,0,0,0,.29-.66Q45.77,38.28,44,29.65l-.48-2.26h-.12C40.24,36.73,37.1,46.07,33.94,55.52ZM20.63,27.39h-.11c0,.11-.07.22-.09.32q-2,9.59-4,19.16a.54.54,0,0,0,.31.69L29.6,55.29l.46.23Z"/></svg>