<svg id="Layer_1" data-name="Layer 1" xmlns="http://www.w3.org/2000/svg" viewBox="0 0 64 64"><title>human</title><path d="M5.48,46.4c.15-.6.28-1.2.46-1.79A17.9,17.9,0,0,1,16.58,32.68l.29-.13A10.92,10.92,0,0,1,12.57,22,10.62,10.62,0,0,1,31,16.46a11.05,11.05,0,0,1-1.68,16.06l3.39,1.73a36.91,36.91,0,0,1,2.83-2.9,35.07,35.07,0,0,1,3.34-2.27,8.91,8.91,0,0,1-.09-13.22,8.51,8.51,0,0,1,11.68.24A8.93,8.93,0,0,1,50,29.17a14.4,14.4,0,0,1,4.05,2.65A14.21,14.21,0,0,1,58.47,40,3.48,3.48,0,0,1,55,44H40.1c.18.82.39,1.62.52,2.42a4,4,0,0,1-3.95,4.71q-13.59,0-27.19,0a4.05,4.05,0,0,1-3.87-3c0-.13-.09-.25-.13-.38Zm17.58,1.66H36.37c.93,0,1.34-.48,1.14-1.37a20.91,20.91,0,0,0-.56-2.1,14.68,14.68,0,0,0-16.12-9.87A14.87,14.87,0,0,0,8.69,46.48c-.23,1.17.1,1.58,1.28,1.58Zm0-16.63a7.74,7.74,0,1,0-7.55-7.73A7.67,7.67,0,0,0,23.08,31.43Zm12.19,4.91a18.33,18.33,0,0,1,3.38,4.38.56.56,0,0,0,.43.18H54.82c.51,0,.64-.19.54-.69a11.21,11.21,0,0,0-3.6-6.32A10.87,10.87,0,0,0,35.27,36.34Zm9.27-19.58A5.64,5.64,0,1,0,50,22.4,5.58,5.58,0,0,0,44.54,16.76Z"/></svg>