<svg id="Layer_1" data-name="Layer 1" xmlns="http://www.w3.org/2000/svg" viewBox="0 0 64 64"><title>skill</title><path d="M55.9,42.24a4.51,4.51,0,0,0-4.43-3.55,4.65,4.65,0,0,0-2.65.84,1.09,1.09,0,0,1-.56.21.45.45,0,0,1-.2,0C47,39.11,46,38.51,44.93,37.9l-.82-.47-.19-.11.08-.2a13.11,13.11,0,0,0,0-10.3l-.09-.2.19-.11,1-.59c.9-.51,1.74-1,2.6-1.52a1.14,1.14,0,0,1,.57-.18,1.06,1.06,0,0,1,.63.24,4.51,4.51,0,0,0,5.49-.3,4.54,4.54,0,0,0,1.16-5.43,4.59,4.59,0,0,0-4.11-2.6,4.8,4.8,0,0,0-.85.08,4.58,4.58,0,0,0-3.69,4.87c0,.1,0,.64-.29.82-1,.6-2,1.19-3,1.76l-.87.5-.19.11-.13-.17a13.2,13.2,0,0,0-8.92-5.16l-.22,0V17.52c0-1,0-2,0-3a.92.92,0,0,1,.61-1,4.51,4.51,0,0,0,2.59-3.73,4.45,4.45,0,0,0-1.91-4.06,5.81,5.81,0,0,0-1.38-.63l-.66-.24h-1.2l-.16,0L30.76,5a4.33,4.33,0,0,0-3.28,3.55,4,4,0,0,0,1.82,4.47,2.36,2.36,0,0,1,1.29,2.65,1.74,1.74,0,0,0,0,.32v2.89l-.21,0a13.23,13.23,0,0,0-8.93,5.16l-.13.17-.19-.11-.88-.52a20.91,20.91,0,0,0-1.94-1.08,2.16,2.16,0,0,1-1.4-2.22,4,4,0,0,0-1.19-2.82,4.8,4.8,0,0,0-3.38-1.37l-.45,0a4.57,4.57,0,0,0-4,5,4.55,4.55,0,0,0,4.5,4.11,4.74,4.74,0,0,0,2.71-.87.72.72,0,0,1,.93,0c.51.31,1,.6,1.55.9l.75.43,1,.59.44.26.18.11-.07.19c-1.38,3.86-1.39,5.6,0,10.36l0,.18-.16.1-1,.57c-.91.52-1.83,1-2.73,1.59a1,1,0,0,1-.45.14.88.88,0,0,1-.53-.21,4.18,4.18,0,0,0-2.44-.84h-.13a4.32,4.32,0,0,0-4.1,2.46,4.28,4.28,0,0,0,.46,4.89,4.24,4.24,0,0,0,3.44,1.75,5.29,5.29,0,0,0,1.16-.13A4.53,4.53,0,0,0,17,42.87a1,1,0,0,1,.32-.84c1-.6,1.94-1.15,3-1.74l.89-.51.19-.11.13.17A13.23,13.23,0,0,0,30.37,45l.21,0v1.38c0,1,0,2,0,2.91a1.06,1.06,0,0,1-.69,1.15,4.47,4.47,0,0,0-2.31,5.42,4.62,4.62,0,0,0,4.31,3.2,3.81,3.81,0,0,0,.59,0,4.56,4.56,0,0,0,4-4.5,4.49,4.49,0,0,0-2.66-4.18s-.51-.28-.52-.61c0-1.18,0-2.38,0-3.54V45l.22,0a13.42,13.42,0,0,0,5-1.67,13.6,13.6,0,0,0,4-3.49l.13-.17.19.11.94.55c.72.43,1.4.84,2.13,1.2A1.78,1.78,0,0,1,47,43.4a4.14,4.14,0,0,0,2.63,4,4.73,4.73,0,0,0,2,.45,4.39,4.39,0,0,0,2.79-1.06A4.3,4.3,0,0,0,55.9,42.24ZM50.16,19.39a1.82,1.82,0,0,1,1.3-.54,1.86,1.86,0,0,1,1.87,1.83,1.89,1.89,0,0,1-1.85,1.86h0a1.85,1.85,0,0,1-1.31-3.15ZM12.42,22.54h0a1.85,1.85,0,0,1-1.85-1.83,1.8,1.8,0,0,1,.52-1.29,1.83,1.83,0,0,1,1.31-.57,1.85,1.85,0,1,1,0,3.69Zm1.29,22a1.83,1.83,0,0,1-1.31.54,1.84,1.84,0,1,1,1.31-.54ZM30.09,9.44a1.88,1.88,0,0,1,1.8-1.88h0a1.86,1.86,0,0,1,1.34.55,1.83,1.83,0,0,1,.55,1.31A1.89,1.89,0,0,1,32,11.27h0A1.88,1.88,0,0,1,30.09,9.44Zm3.7,45.08a1.88,1.88,0,0,1-1.85,1.86h-.05a1.88,1.88,0,0,1-1.8-1.89,1.85,1.85,0,0,1,1.85-1.82A1.89,1.89,0,0,1,33.79,54.52ZM38,40.34a9.94,9.94,0,0,1-6.1,2,9.82,9.82,0,0,1-6.11-2l-.18-.14.13-.19a7,7,0,0,1,6.14-3.45h.19a7,7,0,0,1,6,3.45l.12.19Zm-9-9.46A2.92,2.92,0,1,1,34,33a2.87,2.87,0,0,1-2.06.86h0A2.87,2.87,0,0,1,29.87,33,2.83,2.83,0,0,1,29,30.88ZM40.4,38l-.21.28L40,38a10.1,10.1,0,0,0-3.58-3.09l-.23-.12.12-.22c1.83-3.29,1.55-6.05-.78-8a5.66,5.66,0,0,0-7.17,0c-2.35,2-2.61,4.64-.78,8l.12.22-.22.12a10,10,0,0,0-3.56,3l-.19.26L23.51,38a10.18,10.18,0,0,1,.82-13.07A10.39,10.39,0,0,1,40.4,38Zm12.39,6.57a1.87,1.87,0,0,1-1.31.55h0a1.85,1.85,0,0,1,0-3.69,1.87,1.87,0,0,1,1.87,1.84A1.84,1.84,0,0,1,52.79,44.54Z"/></svg>