<svg id="Layer_1" data-name="Layer 1" xmlns="http://www.w3.org/2000/svg" viewBox="0 0 64 64"><title>speed</title><path d="M34.08,58.83c-1.11-.17-2.25-.28-3.35-.53A23,23,0,0,1,17,49.51c-.07-.08-.13-.17-.19-.25a1.13,1.13,0,0,1-.06-.14l2.84-2c4.24,5.46,9.76,8.33,16.69,8.15A18.82,18.82,0,0,0,49.64,49.3a19.61,19.61,0,0,0-.09-27.59A19,19,0,0,0,34,16a19.49,19.49,0,0,0-14.45,8.1L16.67,22a23.1,23.1,0,0,1,7-6.38,22.3,22.3,0,0,1,6.12-2.53c.32-.08.45-.21.44-.56,0-1.24,0-2.48,0-3.78H28.45V5.17H42.68V8.7H40.93v1.49c0,.73,0,1.47,0,2.2,0,.44.14.6.55.7a22.29,22.29,0,0,1,9.45,5,22.89,22.89,0,0,1,7.83,15.51c0,.17.06.33.09.5V37c-.13.93-.24,1.86-.41,2.79a23.27,23.27,0,0,1-18,18.5c-1.13.23-2.27.35-3.41.52Zm3.22-46.5V8.76H33.81v3.57Z"/><path d="M44.68,24.59l1.86,1.85a.49.49,0,0,1,0,.68l0,0c-1.93,1.93-3.85,3.86-5.78,5.78a.6.6,0,0,0-.17.76,5.33,5.33,0,0,1-6.5,7,5,5,0,0,1-3.75-4.15,5.33,5.33,0,0,1,7.2-5.94.53.53,0,0,0,.67-.17L44,24.61h0A.48.48,0,0,1,44.68,24.59Zm-7.34,11a1.79,1.79,0,0,0-1.83-1.8,1.81,1.81,0,0,0-1.73,1.7,1.78,1.78,0,0,0,1.76,1.87A1.76,1.76,0,0,0,37.34,35.57Z"/><rect x="8.75" y="26.67" width="16.08" height="3.49" rx="1.74"/><rect x="5.17" y="33.81" width="16.06" height="3.51" rx="1.74"/><rect x="8.75" y="40.96" width="16.05" height="3.51" rx="1.74"/></svg>