<svg id="Layer_1" data-name="Layer 1" xmlns="http://www.w3.org/2000/svg" viewBox="0 0 64 64"><title>technical</title><path d="M56.83,53.26l-.35-.1-.19,0-.37-.1V26.68c0-1.15-.52-1.66-1.67-1.66H43.68c-1.34,0-1.79.44-1.79,1.77V53.15H39V41.75c0-1.21-.48-1.71-1.68-1.71H26.65c-1.17,0-1.66.5-1.66,1.67V53.16H22.11V32.35c0-1.21-.49-1.7-1.69-1.7H9.79c-1.23,0-1.71.49-1.71,1.73V53l-.38.09-.23,0-.27.07a1.37,1.37,0,0,0-1,1.4,1.39,1.39,0,0,0,1.1,1.26,2.27,2.27,0,0,0,.48,0H56.53a1.41,1.41,0,0,0,1.26-1.21A1.39,1.39,0,0,0,56.83,53.26Zm-37.51-.1H16.47V51c0-.68,0-1.38,0-2.06a1.37,1.37,0,0,0-2.74,0c0,.87,0,1.74,0,2.62v1.64H10.88V33.45h8.44Zm16.9,0H33.43l0-.47V52.5c0-.13,0-.27,0-.4V47.47c0-.54-.14-1.78-1.37-1.79a1.22,1.22,0,0,0-1,.42,2,2,0,0,0-.39,1.33v5.71H27.78V42.83h8.44Zm16.9,0H50.28V32.41a2.86,2.86,0,0,0-.09-.83,1.33,1.33,0,0,0-1.28-.93h-.19A1.41,1.41,0,0,0,47.53,32a2.41,2.41,0,0,0,0,.38V53.15H44.68V27.82h8.44Z"/><path d="M51.05,8.58a5.12,5.12,0,0,0-5.63.9,5,5,0,0,0-1.29,5.58,1.12,1.12,0,0,1-.3,1.33c-3.15,3.14-6,6-8.63,8.63a1.26,1.26,0,0,1-.9.43,1.62,1.62,0,0,1-.53-.11A5.55,5.55,0,0,0,31.93,25a5.07,5.07,0,0,0-3.23,1.23,1.23,1.23,0,0,1-.81.33,1.52,1.52,0,0,1-.52-.11c-2-.82-4.06-1.68-6.18-2.5a1.35,1.35,0,0,1-1-1.42,5.13,5.13,0,0,0-5.13-5A5.25,5.25,0,0,0,10,23a4.84,4.84,0,0,0,3,4.23,5.22,5.22,0,0,0,2.21.53,5.17,5.17,0,0,0,3.25-1.25,1.26,1.26,0,0,1,.8-.33,1.36,1.36,0,0,1,.58.14c2.48,1,4.39,1.79,6.18,2.49a1.3,1.3,0,0,1,.93,1.33A4.86,4.86,0,0,0,30,34.86a5.25,5.25,0,0,0,2.1.46,5.19,5.19,0,0,0,4.65-6.95A1.22,1.22,0,0,1,37.13,27c3.13-3.12,5.91-5.9,8.5-8.51a1.38,1.38,0,0,1,1-.49,1.62,1.62,0,0,1,.57.12,5.26,5.26,0,0,0,1.71.3,5.14,5.14,0,0,0,2.13-9.8ZM16.78,24.3a2.35,2.35,0,0,1-1.67.71h0A2.38,2.38,0,0,1,15,20.26h.05a2.4,2.4,0,0,1,2.39,2.37A2.35,2.35,0,0,1,16.78,24.3ZM32,32.53a2.39,2.39,0,0,1-2.38-2.43A2.38,2.38,0,1,1,32,32.53ZM48.9,15.62h-.06a2.38,2.38,0,1,1,1.78-4,2.36,2.36,0,0,1,.66,1.72A2.4,2.4,0,0,1,48.9,15.62Z"/></svg>