<svg xmlns="http://www.w3.org/2000/svg" xmlns:xlink="http://www.w3.org/1999/xlink" width="1920" height="126" viewBox="0 0 1920 126"><defs><clipPath id="b"><rect width="1920" height="126"/></clipPath></defs><g id="a" clip-path="url(#b)"><path d="M3278-2771h0c-.262-.046-30.406-5.275-82.6-13.048-30.511-4.544-62.4-9.044-94.788-13.373-40.461-5.409-81.819-10.567-122.927-15.33-104.6-12.12-208.132-21.777-307.716-28.7-59.133-4.112-117.51-7.295-173.509-9.459-61.6-2.381-121.858-3.588-179.089-3.588s-117.467,1.207-179.035,3.588c-55.967,2.164-114.3,5.347-173.367,9.459-99.48,6.926-202.865,16.583-307.285,28.7-41.034,4.763-82.315,9.921-122.7,15.33-32.322,4.329-64.145,8.829-94.587,13.373-51.2,7.644-81.151,12.83-82.4,13.047v-113H3278v113Z" transform="translate(-1358 2884)" fill="#f0eee7"/></g></svg>