<?xml version="1.0" encoding="utf-8"?>
<!-- Generator: Adobe Illustrator 23.1.0, SVG Export Plug-In . SVG Version: 6.00 Build 0)  -->
<svg version="1.1" id="Layer_1" xmlns="http://www.w3.org/2000/svg" xmlns:xlink="http://www.w3.org/1999/xlink" x="0px" y="0px"
	 viewBox="0 0 1920 246.3" style="enable-background:new 0 0 1920 246.3;" xml:space="preserve">
<style type="text/css">
	.st0{fill:none;}
	.st1{fill:url(#SVGID_1_);}
	.st2{fill:url(#SVGID_2_);}
	.st3{fill:url(#SVGID_3_);}
</style>
<rect class="st0" width="1920" height="251"/>
<g id="c">
	<linearGradient id="SVGID_1_" gradientUnits="userSpaceOnUse" x1="1600.6525" y1="408.7419" x2="17.4753" y2="-133.393">
		<stop  offset="0" style="stop-color:#FFEE76"/>
		<stop  offset="1" style="stop-color:#FFCB57"/>
	</linearGradient>
	<path class="st1" d="M1691.8,162.3l-479.4,47H595L184.7,169L52.4,155.6L0,138.3V9.4C17.5,6.9,72,0,145.5,0
		c97,0,227.3,12,349.6,61.7c123.6,50.2,269.4,69.3,407.3,72.8c125.2,3.1,243.8-6.6,333.2-17.5c187.9-23,201,13.7,262.4,38.7
		C1535.9,171,1627.6,167.3,1691.8,162.3z"/>
	<linearGradient id="SVGID_2_" gradientUnits="userSpaceOnUse" x1="1754.9264" y1="168.9176" x2="1695.3081" y2="148.5022">
		<stop  offset="0" style="stop-color:#FFEE76"/>
		<stop  offset="1" style="stop-color:#FFCB57"/>
	</linearGradient>
	<path class="st2" d="M1759.7,155.6c-2.9,0.4-30.8,3.7-68,6.7L1759.7,155.6z"/>
	<linearGradient id="SVGID_3_" gradientUnits="userSpaceOnUse" x1="31.2662" y1="215.5886" x2="1930.9015" y2="103.5101">
		<stop  offset="0" style="stop-color:#FFBD48"/>
		<stop  offset="0" style="stop-color:#FCB848"/>
		<stop  offset="1" style="stop-color:#D77848"/>
	</linearGradient>
	<path class="st3" d="M1920,123.9v38.9l-0.1,0c-3.3,0.6-33.2,5.7-82.5,13c-30.5,4.5-62.4,9-94.8,13.4
		c-40.5,5.4-81.8,10.6-122.9,15.3c-104.6,12.1-208.1,21.8-307.7,28.7c-59.1,4.1-117.5,7.3-173.5,9.5c-61.6,2.4-121.9,3.6-179.1,3.6
		c-57.2,0-117.5-1.2-179-3.6c-56-2.2-114.3-5.3-173.4-9.5c-99.5-6.9-202.9-16.6-307.3-28.7c-41-4.8-82.3-9.9-122.7-15.3
		c-32.3-4.3-64.1-8.8-94.6-13.4C31.5,168.2,1.3,163,0,162.8h0v-38.9c0.1,0,15.2,3.1,41.3,7.7c24,4.2,62.3,10.5,108.8,16.8
		c52.3,7.1,104,12.8,153.8,16.8c62.3,5.1,121.6,7.7,176.4,7.7c54.8,0,114.1-2.6,176.4-7.7c49.8-4.1,101.6-9.7,153.8-16.8
		c36.7-5,68.4-10,91.8-13.9c6.3-1.1,11.9-2,17-2.9c26.2-4.6,41.1-7.6,41.3-7.7c0.1,0,15.2-4.4,41.3-10.9c24-6,62.3-15,108.9-24.1
		c52.3-10.2,104.1-18.3,153.8-24.1c29.6-3.5,58.7-6.1,86.7-7.9c30.8-2,60.9-3,89.5-3s58.7,1,89.5,3c28,1.8,57.1,4.5,86.6,7.9
		c49.7,5.8,101.3,13.9,153.5,24.1c46.4,9,84.6,18.1,108.5,24.1C1904.9,119.5,1919.8,123.8,1920,123.9z"/>
</g>
</svg>
