<?xml version="1.0" encoding="utf-8"?>
<!-- Generator: Adobe Illustrator 23.1.0, SVG Export Plug-In . SVG Version: 6.00 Build 0)  -->
<svg version="1.1" id="Layer_1" xmlns="http://www.w3.org/2000/svg" xmlns:xlink="http://www.w3.org/1999/xlink" x="0px" y="0px"
	 viewBox="0 0 1920 201" style="enable-background:new 0 0 1920 201;" xml:space="preserve">
<style type="text/css">
	.st0{fill:none;}
	.st1{fill:url(#SVGID_1_);}
	.st2{fill:#FFFFFF;}
</style>
<rect class="st0" width="1920" height="201"/>
<g id="b">
	<linearGradient id="SVGID_1_" gradientUnits="userSpaceOnUse" x1="65.7788" y1="177.4088" x2="1916.9755" y2="68.1882">
		<stop  offset="0" style="stop-color:#FFBD48"/>
		<stop  offset="0" style="stop-color:#FCB848"/>
		<stop  offset="1" style="stop-color:#D77848"/>
	</linearGradient>
	<path class="st1" d="M1920,83.2V201H0V83.2C0,83.2,448.3,5.3,911.3,0c16.4-0.2,32.9-0.3,49.3-0.3s32.9,0.1,49.3,0.3
		C1472.9,5.3,1920,83.2,1920,83.2z"/>
	<path class="st2" d="M1920,105.3V201H0v-95.7c0,0,239.3,70,479.1,70s362.5-40.9,480.3-70c117.2-29,240.2-49,480.3-49
		S1920,105.3,1920,105.3z"/>
</g>
</svg>
