<svg version="1.1" id="Layer_1" xmlns="http://www.w3.org/2000/svg" xmlns:xlink="http://www.w3.org/1999/xlink" x="0px" y="0px"
	 viewBox="0 0 64 64" style="enable-background:new 0 0 64 64;" xml:space="preserve">
<style type="text/css">
	.st0{fill:#f9fafa;}
	.st1{fill:#969ba0;}
</style>
<g>
	<rect x="0" y="0" class="st0" width="64" height="64"/>
	<path class="st1" d="M40.7,26.2c-2,3-4.7,4.7-8.3,4.9c-4.8,0.3-8.6-2.5-10.4-6.3c-1.7-3.6-1-8.3,1.6-11.3c1.6-1.8,3.5-3.1,5.9-3.5
		c0.4-0.1,0.8-0.1,1.2-0.2h2c0.6,0.1,1.2,0.2,1.7,0.4c3.9,0.9,7.3,4.7,7.8,8.7C42.6,21.5,42.2,24,40.7,26.2z"/>
	<path class="st1" d="M50.4,46.9c0,3.9-2.7,6.8-6.6,7.1c-0.5,0-1,0.1-1.5,0.1c-3.5,0-6.9,0-10.3,0H21.5c-1.8,0-3.5-0.4-4.9-1.4
		c-1.7-1.2-2.7-2.9-2.9-4.9c-0.3-3.7,0.1-7.3,1.5-10.7c0.8-2,2.1-3.8,4.1-4.9c1.3-0.7,2.6-1,4-1c0.4,0,0.9,0.2,1.3,0.5
		c0.7,0.4,1.3,0.8,1.9,1.2c3.7,2.3,7.4,2.3,11.1,0c0.5-0.3,1-0.6,1.5-1c0.9-0.7,1.9-0.8,3-0.6c2.8,0.4,4.8,2,6.2,4.4
		c1.2,2.2,1.8,4.7,2,7.2C50.4,44.3,50.5,45.6,50.4,46.9z"/>
</g>
</svg>
