<svg xmlns="http://www.w3.org/2000/svg" xmlns:xlink="http://www.w3.org/1999/xlink" width="89" height="89" viewBox="0 0 89 89"><defs><clipPath id="b"><rect width="89" height="89"/></clipPath></defs><g id="a" clip-path="url(#b)"><g transform="translate(-4.938 -1.888)"><path d="M4.89,57.666c.181-.9.361-1.823.558-2.726.542-2.644,1.1-5.287,1.642-7.947l1.642-7.8c.1-.443.213-.887.279-1.33s.246-.509.558-.624c1.363-.427,2.709-.887,4.056-1.346l6.338-2.1c.246-.082.525-.1.69-.328a1.133,1.133,0,0,0-.3-.575l-5.911-8.325L13.28,23c.082-.213.148-.41.23-.608l4.368-10.049C18.929,9.9,20,7.422,21.047,5.024a5.433,5.433,0,0,0,.246-.542c.115-.394.394-.493.772-.542,1.117-.1,2.233-.246,3.284-.361l2.972-.3,2.972-.328,2.89-.312,2.906-.312,3.169-.263.772-.082h.657c1.264,1.724,2.5,3.366,3.727,5.139s2.463,3.5,3.694,5.205c.312,0,.378-.213.493-.361.722-1,1.429-2.02,2.135-3.021l4.433-6.256.575-.788a1.642,1.642,0,0,1,.394,0l2.775.3,3.021.328,2.89.3,3.284.345,3.021.345,2.775.3,1.543.148a.722.722,0,0,1,.673.509L78.647,7.98q3.136,7.192,6.24,14.4c.279.608.345.509-.131,1.166L78.3,32.659c-.148.2-.279.427-.41.624.131.3.41.3.608.378l4.006,1.33,6.568,2.2c.69.23.673.23.821.9L91.668,46.6c.575,2.841,1.166,5.681,1.74,8.522.148.673.246,1.363.443,2.02a.936.936,0,0,1-.345,1.018c-1.379,1.248-2.742,2.512-4.1,3.777l-9.852,9.031-.394.361a.624.624,0,0,1-.706.148l-3.432-1.149L67.63,67.846a1.248,1.248,0,0,0-.788-.148c0,.1,0,.23,0,.345v12.43c-.427.345-16.715,10.032-17.536,10.41l-.542-.3L35.628,82.821l-3.136-1.855-.378-.23a.525.525,0,0,1-.3-.542V68.7a5.09,5.09,0,0,0,0-.706.2.2,0,0,0-.263-.2l-.624.181-8.62,2.873c-.624.213-1.281.394-1.9.624a.624.624,0,0,1-.706-.148c-.558-.542-1.133-1.067-1.642-1.642L5.711,58.192a2.709,2.709,0,0,1-.821-.525Zm74.677,9.228.328-.263,1.4-1.264,8.916-8.21a1.4,1.4,0,0,0,.493-.64c-1-4.926-2.02-9.737-3.038-14.614a.379.379,0,0,0-.115-.263.854.854,0,0,0-.246.1l-.394.345-6.437,5.96c-1.231,1.149-2.463,2.3-3.727,3.432a.952.952,0,0,0-.312,1.034c.378,1.642.706,3.382,1.067,5.074.443,2.2.9,4.4,1.363,6.568.164.8.328,1.642.509,2.414C79.386,66.664,79.485,66.746,79.567,66.894ZM11.228,41.673a.391.391,0,0,1-.082.279l-.887,4.253c-.476,2.233-.936,4.483-1.412,6.716l-.64,3.12a.8.8,0,0,0,.3.969c.131.1.246.23.378.345l6.765,6.256,3.284,3c.115.115.23.263.46.2a4.923,4.923,0,0,0,.164-.525l1.33-6.568c.509-2.43,1-4.926,1.527-7.29a1.051,1.051,0,0,0-.378-1.133l-9.376-8.555-1.018-.92C11.639,41.723,11.441,41.591,11.228,41.673ZM38.485,5.353a3.678,3.678,0,0,0-.394,0l-1.642.164-2.906.312-3.087.328-2.906.312c-1.034.115-2.052.246-3.087.328s-.887.131-1.2.837l-4.286,9.852L17.73,20.344a.739.739,0,0,0-.115.657h.591l1.642-.181,2.956-.328,2.939-.361,3.038-.345,2.956-.312a6.338,6.338,0,0,0,.673-.115c.246-.443,5.73-12.939,6.026-13.776a.952.952,0,0,0,.049-.23Zm21.543,0v.164l5.8,13.284c0,.2.181.378.279.575l.92.148,4.2.427,4.187.476,3.481.378,1.74.164a2.545,2.545,0,0,0,.345,0,1.232,1.232,0,0,0-.2-.706L77.5,12.577,75.134,7.34a.821.821,0,0,0-.755-.591l-2.841-.279L68.5,6.125l-2.89-.312L62.638,5.5l-2.315-.148ZM36.268,79.718l.772.476,8.768,5.189c.969.575,1.938,1.133,2.89,1.642a.87.87,0,0,0,1.133,0,.542.542,0,0,1,.164-.1l4.926-2.906,6.8-4.039c.181-.1.41-.164.509-.41a.854.854,0,0,0-.164-.181c-.821-.575-12.364-7.356-12.84-7.537q-6.387,3.842-12.742,7.619A2.625,2.625,0,0,0,36.268,79.718ZM57.17,6.584a1.773,1.773,0,0,0-.542.591l-5.172,7.307-.263.378a.394.394,0,0,0,0,.427l.312.427L53,17.832c.657.969.64.624.164,1.724-.706,1.642-1.429,3.284-2.151,4.926a1,1,0,0,0,0,.87q1.642,3.612,3.169,7.258a2.61,2.61,0,0,0,.213.361c.3,0,.361-.263.476-.427,1.642-2.2,3.136-4.417,4.7-6.568l3.284-4.712c.46-.64.46-.542.131-1.3-1.839-4.269-3.694-8.522-5.55-12.791ZM47.319,15.04l-.427-.64L43.9,10.115,41.752,7.093c-.115-.181-.213-.378-.443-.46a1.117,1.117,0,0,0-.361.608q-2.759,6.322-5.484,12.61c-.378.887-.394.673.164,1.461L41.063,29c.821,1.166,1.642,2.332,2.479,3.481.131.2.23.427.476.509s.263-.345.345-.542c.69-1.642,1.4-3.2,2.085-4.811.328-.755.64-1.511,1-2.266a.87.87,0,0,0,0-.854,4.464,4.464,0,0,1-.181-.41l-2.1-4.827-.246-.673,1.2-1.757a21.626,21.626,0,0,0,1.248-1.806Zm3.448,38.9a1.281,1.281,0,0,0-.115.739V68.634a.887.887,0,0,0,.558.985h.115l7.98,4.729L63.1,76.6a.969.969,0,0,0,.64.213q0-.246,0-.493V67.107c0-.591,0-.591-.558-.788l-.246-.082c-.936-.312-1.872-.64-2.824-.936a.837.837,0,0,1-.657-.706c-.246-1.3-.509-2.578-.788-3.875-.148-.739-.312-1.478-.46-2.217a.788.788,0,0,0-.41-.558l-.772-.46-5.7-3.284a1.067,1.067,0,0,0-.509-.263Zm8.21-6.075v.46l1.429,6.913a4.89,4.89,0,0,0,.148.706.657.657,0,0,0,.378.493l.328.2L66.2,59.538l.558.345v3.793c0,.8,0,.772.739,1.034l7.372,2.463,1.3.41a1.822,1.822,0,0,0,.312,0,2.167,2.167,0,0,0-.082-.87L73.689,53.578a5.5,5.5,0,0,0-.263-1.117l-.772-.279L63.689,49.21l-3.826-1.264a.952.952,0,0,0-.755-.082ZM75.758,36.041l-.427.575c-.608.854-1.2,1.642-1.806,2.545-.131.2-.279.378-.394.525a5.435,5.435,0,0,1-1.478-.082l-3.284-.361L66.5,39.063a.9.9,0,0,0-.772.263l-1.642,1.461c-1.281,1.166-2.545,2.348-3.809,3.53-.148.115-.328.213-.345.443a.739.739,0,0,0,.493.263l12.873,4.286c.92.3.706.427,1.511-.328l8.013-7.405,2-1.855a.837.837,0,0,0,.394-.509A.687.687,0,0,0,85,39.079c-.739-.394-8.6-2.956-9.113-3.038ZM80.6,24.071l-.279-.082-2-.246-2.956-.328L72.392,23.1l-2.972-.312c-.985-.1-1.97-.246-2.956-.328s-.706-.082-1.133.509l-6.9,9.753c-.427.591-.854,1.2-1.264,1.806-.1.115-.213.23-.1.41a.575.575,0,0,0,.181,0l1.412.181,2.956.328c1.018.115,2.036.181,3.038.328a.985.985,0,0,0,.985-.312c0-.1.2-.164.3-.263l4.138-3.826.3-.263a.328.328,0,0,1,.361,0l.427.131,2.956.969.706.23.46-.575,3.826-5.419,1.264-1.79C80.437,24.465,80.6,24.334,80.6,24.071ZM23.773,32.495l.64-.2,2.709-.9.92-.3a.443.443,0,0,1,.525.131l1.33,1.231,3.284,2.988a1.067,1.067,0,0,0,.936.345c.608-.1,1.231-.115,1.855-.181l4.647-.509a3.185,3.185,0,0,0,.936-.2,1.888,1.888,0,0,0-.427-.755c-2.578-3.645-5.156-7.307-7.75-10.952-.624-.854-.361-.837-1.642-.69l-3.021.328-2.972.312-2.956.328-3.038.312-1.543.2-.3.115a1.527,1.527,0,0,0,.148.328C18.8,25.7,23.362,32.051,23.773,32.495ZM13.28,39.243l.525.525,5.484,5.074c1.642,1.478,3.284,2.956,4.811,4.45a.608.608,0,0,0,.755.164l.361-.115,6.453-2.151,6.24-2.1c.246-.082.525-.1.69-.328s-.23-.361-.378-.493L33.69,40.081l-.952-.887a.608.608,0,0,0-.525-.181l-3.678.394-2.775.3h-.624c-.92-1.182-1.642-2.43-2.594-3.563-.542.1-7.75,2.447-8.916,2.906Zm9.08,28.308h.361l2.4-.788,6.026-2.02c.542-.181.558-.2.558-.772a1.4,1.4,0,0,0,0-.263V60.523c0-.722,0-.657.558-1.018l.394-.23c1.642-.969,3.284-1.954,4.926-2.906a1,1,0,0,0,.542-.755c.164-.9.378-1.823.558-2.726.312-1.478.624-2.956.92-4.433a.591.591,0,0,0,0-.591,1.642,1.642,0,0,0-.722.181L27.943,51.689l-2.167.706a.624.624,0,0,0-.476.542,2.544,2.544,0,0,1,0,.378c-.2.936-.378,1.872-.558,2.808L22.476,66.96a.837.837,0,0,0-.082.591Zm21-22.643c-.378,1.806-.739,3.563-1.1,5.32-.23,1.084-.46,2.167-.673,3.284a.568.568,0,0,0,.115.427,1.9,1.9,0,0,0,.657-.328l6.4-3.924.624-.328.591.328L55.1,52.97l1.773,1.1c.115,0,.246.181.427,0a2.694,2.694,0,0,0,0-.361c-.558-2.693-1.084-5.386-1.642-8.062-.181-.87,0-.788.394-1.231l4.384-4.072L61.8,39.063c.131-.115.3-.213.246-.46l-.608-.131-2.956-.279-1.543-.164c-.985-.115-1.97-.263-2.972-.328s-.87-.131-1.182-.9l-3-7.323a1.067,1.067,0,0,0-.361-.624.488.488,0,0,0-.164.164,2.414,2.414,0,0,0-.23.46L45.841,36.55c-.115.263-.246.509-.345.772a.608.608,0,0,1-.558.378h-.312l-1.642.181-2.939.312-2.841.279a.471.471,0,0,0-.493.263c.69.722,1.461,1.363,2.2,2.069s1.445,1.346,2.184,2.036ZM34.708,76.926a2.512,2.512,0,0,0,.788-.361l11.609-6.88c.755-.443.64-.361.64-1.166V54.185a.722.722,0,0,0,0-.246,1.116,1.116,0,0,0-.608.246c-1.97,1.166-3.941,2.348-5.911,3.5a1.215,1.215,0,0,0-.64.9c-.41,2.036-.854,4.056-1.248,6.092a.821.821,0,0,1-.64.706c-.608.181-1.182.394-1.79.591l-1.642.525c-.575.2-.575.2-.575.772v9.08A.777.777,0,0,0,34.708,76.926Zm0-13.546h.2l1.478-.476a.46.46,0,0,0,.312-.378c.131-.657.279-1.314.394-1.97a1.839,1.839,0,0,0,0-.427,3.185,3.185,0,0,0-.394.164l-.952.558-.821.493a.41.41,0,0,0-.246.361,7.865,7.865,0,0,0,.033,1.675ZM25.645,35.122A6.075,6.075,0,0,0,26.4,36.3a.525.525,0,0,0,.542.246L29.06,36.3a2.658,2.658,0,0,0,.312,0v-.213l-1.56-1.461a.46.46,0,0,0-.361,0,9.047,9.047,0,0,0-1.806.493Zm47.19-.131a9.852,9.852,0,0,0-1.33-.476.509.509,0,0,0-.575.148L69.6,35.894a1.231,1.231,0,0,0-.213.3c.131.2.312.181.476.213l1.281.131h.46A.411.411,0,0,0,72,36.353c.279-.378.542-.772.8-1.166C72.835,35.171,72.818,35.089,72.835,34.99ZM63.8,63.282V61.935a.624.624,0,0,0-.328-.591l-1.445-.837a.87.87,0,0,0-.3,0q0,.074,0,.148c.131.657.246,1.314.394,1.97a.476.476,0,0,0,.378.394l.92.328ZM49.174,21.034c.115-.1.181-.131.2-.181.246-.525.476-1.051.706-1.642a.427.427,0,0,0,0-.476c-.181-.263-.361-.542-.558-.788a1.642,1.642,0,0,0-.246-.23,4.17,4.17,0,0,0-.87,1.149.46.46,0,0,0,0,.3,17.452,17.452,0,0,0,.772,1.872Z" transform="translate(0.048)" fill="#fff"/><path d="M26.77,27.675a50.9,50.9,0,0,1,6.108-.213c.115-.279.213-.509.3-.755.476-1.494.969-3,1.461-4.5a1.166,1.166,0,0,1,.312-.657,18.622,18.622,0,0,1,.673,1.97c.213.624.41,1.281.624,1.9l.64,1.954a2.052,2.052,0,0,0,.87.131H43.14a5.09,5.09,0,0,1-.854.706l-.788.575-.837.608-.837.624-.788.575-.821.608a2.053,2.053,0,0,0,.181.788l1.429,4.433c0,.213.23.427.115.69-.246,0-.361-.164-.525-.263l-3.842-2.775-.657-.46c-.9.608-1.74,1.264-2.594,1.872l-2.611,1.888c.3-1.117.673-2.1.985-3.1s.657-1.97.936-2.923a1.264,1.264,0,0,0-.542-.525l-3.826-2.808Z" transform="translate(14.094 12.619)" fill="#fff"/></g></g></svg>