<svg xmlns="http://www.w3.org/2000/svg" xmlns:xlink="http://www.w3.org/1999/xlink" width="117" height="75"
    viewBox="0 0 117 75" fill="#0668af">
    <defs>
        <clipPath id="b">
            <rect width="117" height="75" />
        </clipPath>
    </defs>
    <g id="a" clip-path="url(#b)">
        <g transform="translate(-158.99 -41.999)">
            <g transform="translate(183.188 40.106)">
                <path
                    d="M4.89,38.7c.119-.6.238-1.2.368-1.8.358-1.744.726-3.489,1.083-5.244l1.083-5.147c.065-.293.141-.585.184-.878s.163-.336.368-.412c.9-.282,1.788-.585,2.676-.888l4.182-1.387c.163-.054.347-.065.455-.217a.748.748,0,0,0-.2-.379l-3.9-5.493-.769-1.029c.054-.141.1-.271.152-.4L13.46,8.792c.693-1.614,1.4-3.25,2.091-4.832a3.586,3.586,0,0,0,.163-.358c.076-.26.26-.325.509-.358.737-.065,1.474-.163,2.167-.238l1.961-.2,1.961-.217,1.907-.206,1.918-.206,2.091-.173.509-.054h.433c.834,1.138,1.647,2.221,2.46,3.391s1.625,2.308,2.438,3.435c.206,0,.249-.141.325-.238.477-.661.943-1.333,1.409-1.994l2.925-4.128.379-.52a1.083,1.083,0,0,1,.26,0l1.831.2,1.994.217,1.907.2,2.167.228,1.994.228,1.831.2,1.018.1a.477.477,0,0,1,.444.336L53.56,5.91q2.069,4.746,4.117,9.5c.184.4.228.336-.087.769l-4.258,6.013c-.1.13-.184.282-.271.412.087.2.271.2.4.249l2.644.878,4.334,1.452c.455.152.444.152.542.6l1.17,5.612c.379,1.874.769,3.749,1.148,5.623.1.444.163.9.293,1.333a.618.618,0,0,1-.228.672c-.91.823-1.809,1.658-2.709,2.492l-6.5,5.959-.26.238a.412.412,0,0,1-.466.1l-2.264-.758L46.29,45.413a.823.823,0,0,0-.52-.1v8.43c-.282.228-11.03,6.62-11.572,6.869l-.358-.2-8.668-5.125L23.1,54.07l-.249-.152a.347.347,0,0,1-.2-.358V45.977a3.359,3.359,0,0,0,0-.466.13.13,0,0,0-.173-.13l-.412.119-5.688,1.9c-.412.141-.845.26-1.257.412a.412.412,0,0,1-.466-.1c-.368-.358-.748-.7-1.083-1.083L5.432,39.043A1.788,1.788,0,0,1,4.89,38.7Zm49.277,6.089.217-.173.921-.834,5.883-5.417a.921.921,0,0,0,.325-.423c-.661-3.25-1.333-6.425-2-9.643a.25.25,0,0,0-.076-.173.563.563,0,0,0-.163.065l-.26.228-4.247,3.933c-.813.758-1.625,1.517-2.46,2.264a.628.628,0,0,0-.206.683c.249,1.083.466,2.232.7,3.348.293,1.452.6,2.9.9,4.334.108.531.217,1.083.336,1.593C54.048,44.633,54.113,44.687,54.167,44.785ZM9.072,28.143a.258.258,0,0,1-.054.184l-.585,2.806c-.314,1.474-.618,2.958-.932,4.431l-.423,2.059a.531.531,0,0,0,.2.639c.087.065.163.152.249.228l4.464,4.128L14.154,44.6c.076.076.152.173.3.13a3.249,3.249,0,0,0,.108-.347l.878-4.334c.336-1.6.661-3.25,1.008-4.811a.693.693,0,0,0-.249-.748l-6.187-5.645-.672-.607C9.343,28.175,9.213,28.088,9.072,28.143ZM27.058,4.176a2.427,2.427,0,0,0-.26,0l-1.083.108L23.8,4.49l-2.037.217-1.918.206c-.683.076-1.354.163-2.037.217s-.585.087-.791.553l-2.828,6.5-.823,1.885a.488.488,0,0,0-.076.433h.39l1.083-.119,1.95-.217,1.939-.238,2-.228,1.95-.206a4.182,4.182,0,0,0,.444-.076c.163-.293,3.781-8.538,3.976-9.09a.628.628,0,0,0,.033-.152Zm14.215,0v.108L45.1,13.05c0,.13.119.249.184.379l.607.1,2.774.282,2.763.314,2.3.249,1.148.108a1.68,1.68,0,0,0,.228,0,.813.813,0,0,0-.13-.466L52.8,8.943l-1.56-3.456a.542.542,0,0,0-.5-.39l-1.874-.184-2-.228-1.907-.206L43,4.273l-1.528-.1ZM25.6,53.247l.509.314,5.786,3.424c.639.379,1.279.748,1.907,1.083a.574.574,0,0,0,.748,0A.358.358,0,0,1,34.653,58l3.25-1.918,4.486-2.665c.119-.065.271-.108.336-.271a.564.564,0,0,0-.108-.119c-.542-.379-8.159-4.854-8.473-4.973q-4.215,2.535-8.408,5.027A1.731,1.731,0,0,0,25.6,53.247ZM39.388,4.989a1.17,1.17,0,0,0-.358.39L35.618,10.2l-.173.249a.26.26,0,0,0,0,.282l.206.282.986,1.4c.433.639.423.412.108,1.138-.466,1.083-.943,2.167-1.419,3.25a.661.661,0,0,0,0,.574q1.083,2.384,2.091,4.789a1.722,1.722,0,0,0,.141.238c.2,0,.238-.173.314-.282,1.083-1.452,2.069-2.915,3.1-4.334l2.167-3.11c.3-.423.3-.358.087-.856C42.01,11,40.786,8.2,39.562,5.379Zm-6.5,5.58-.282-.423L30.634,7.318,29.214,5.324c-.076-.119-.141-.249-.293-.3a.737.737,0,0,0-.238.4q-1.82,4.171-3.619,8.321c-.249.585-.26.444.108.964l3.586,5.071c.542.769,1.083,1.539,1.636,2.3.087.13.152.282.314.336s.173-.228.228-.358c.455-1.083.921-2.113,1.376-3.175.217-.5.423-1,.661-1.5a.574.574,0,0,0,0-.563,2.946,2.946,0,0,1-.119-.271l-1.387-3.185-.163-.444L32.1,11.76a14.271,14.271,0,0,0,.823-1.192Zm2.275,25.668a.845.845,0,0,0-.076.488v9.21a.585.585,0,0,0,.368.65h.076L40.8,49.7l2.5,1.484a.639.639,0,0,0,.423.141q0-.163,0-.325V44.926c0-.39,0-.39-.368-.52l-.163-.054c-.618-.206-1.235-.423-1.864-.618a.553.553,0,0,1-.433-.466c-.163-.856-.336-1.7-.52-2.557-.1-.488-.206-.975-.3-1.463a.52.52,0,0,0-.271-.368l-.509-.3-3.76-2.167a.7.7,0,0,0-.336-.173Zm5.417-4.009v.3l.943,4.561a3.227,3.227,0,0,0,.1.466.433.433,0,0,0,.249.325l.217.13,3.261,1.918.368.228v2.5c0,.531,0,.509.488.683l4.865,1.625.856.271a1.2,1.2,0,0,0,.206,0,1.43,1.43,0,0,0-.054-.574L50.288,36a3.63,3.63,0,0,0-.173-.737l-.509-.184L43.69,33.116l-2.525-.834a.628.628,0,0,0-.5-.054Zm11.073-7.8-.282.379c-.4.563-.791,1.083-1.192,1.679-.087.13-.184.249-.26.347a3.587,3.587,0,0,1-.975-.054l-2.167-.238-1.235-.119a.6.6,0,0,0-.509.173l-1.083.964c-.845.769-1.679,1.549-2.514,2.329-.1.076-.217.141-.228.293a.488.488,0,0,0,.325.173l8.495,2.828c.607.2.466.282,1-.217l5.287-4.887,1.322-1.224a.553.553,0,0,0,.26-.336.453.453,0,0,0-.141-.087c-.488-.26-5.677-1.95-6.013-2Zm3.2-7.9-.184-.054-1.322-.163-1.95-.217-1.961-.206-1.961-.206c-.65-.065-1.3-.163-1.95-.217s-.466-.054-.748.336l-4.551,6.436c-.282.39-.563.791-.834,1.192-.065.076-.141.152-.065.271a.379.379,0,0,0,.119,0l.932.119,1.95.217c.672.076,1.344.119,2,.217a.65.65,0,0,0,.65-.206c0-.065.13-.108.2-.173l2.73-2.525.2-.173a.217.217,0,0,1,.238,0l.282.087,1.95.639.466.152.3-.379L53.864,18.1l.834-1.181C54.741,16.788,54.85,16.7,54.85,16.528Zm-37.5,5.558.423-.13,1.788-.6.607-.2a.293.293,0,0,1,.347.087l.878.813,2.167,1.972a.7.7,0,0,0,.618.228c.4-.065.813-.076,1.224-.119l3.066-.336a2.1,2.1,0,0,0,.618-.13,1.246,1.246,0,0,0-.282-.5c-1.7-2.405-3.4-4.822-5.114-7.227-.412-.563-.238-.553-1.083-.455l-1.994.217-1.961.206-1.95.217-2,.206-1.018.13-.2.076a1.008,1.008,0,0,0,.1.217C14.067,17.6,17.079,21.793,17.35,22.086Zm-6.923,4.453.347.347,3.619,3.348c1.083.975,2.167,1.95,3.175,2.936a.4.4,0,0,0,.5.108L18.3,33.2l4.258-1.419L26.679,30.4c.163-.054.347-.065.455-.217s-.152-.238-.249-.325l-2.99-2.763-.628-.585a.4.4,0,0,0-.347-.119l-2.427.26-1.831.2h-.412c-.607-.78-1.083-1.6-1.712-2.351-.358.065-5.114,1.614-5.883,1.918Zm5.992,18.679h.238l1.582-.52,3.976-1.333c.358-.119.368-.13.368-.509a.921.921,0,0,0,0-.173v-2.1c0-.477,0-.433.368-.672l.26-.152c1.083-.639,2.167-1.289,3.25-1.918a.661.661,0,0,0,.358-.5c.108-.6.249-1.2.368-1.8.206-.975.412-1.95.607-2.925a.39.39,0,0,0,0-.39,1.084,1.084,0,0,0-.477.119L20.1,34.752l-1.43.466a.412.412,0,0,0-.314.358,1.679,1.679,0,0,1,0,.249c-.13.618-.249,1.235-.368,1.853l-1.5,7.151a.553.553,0,0,0-.054.39ZM30.276,30.277c-.249,1.192-.488,2.351-.726,3.51-.152.715-.3,1.43-.444,2.167a.374.374,0,0,0,.076.282,1.257,1.257,0,0,0,.433-.217l4.226-2.59.412-.217.39.217,3.38,2.167,1.17.726c.076,0,.163.119.282,0a1.776,1.776,0,0,0,0-.238c-.368-1.777-.715-3.554-1.083-5.32-.119-.574,0-.52.26-.813l2.893-2.687.9-.845c.087-.076.2-.141.163-.3l-.4-.087-1.95-.184-1.018-.108c-.65-.076-1.3-.173-1.961-.217s-.574-.087-.78-.6l-1.983-4.832a.7.7,0,0,0-.238-.412.322.322,0,0,0-.108.108,1.593,1.593,0,0,0-.152.3l-2.1,4.67c-.076.173-.163.336-.228.509a.4.4,0,0,1-.368.249H31.11l-1.083.119-1.939.206-1.874.184a.311.311,0,0,0-.325.173c.455.477.964.9,1.452,1.365s.953.888,1.441,1.344Zm-5.71,21.128a1.658,1.658,0,0,0,.52-.238l7.66-4.54c.5-.293.423-.238.423-.769V36.4a.477.477,0,0,0,0-.163.737.737,0,0,0-.4.163c-1.3.769-2.6,1.549-3.9,2.308a.8.8,0,0,0-.423.6c-.271,1.344-.563,2.676-.823,4.02a.542.542,0,0,1-.423.466c-.4.119-.78.26-1.181.39l-1.083.347c-.379.13-.379.13-.379.509v5.992A.513.513,0,0,0,24.566,51.405Zm0-8.939h.13l.975-.314a.3.3,0,0,0,.206-.249c.087-.433.184-.867.26-1.3a1.213,1.213,0,0,0,0-.282,2.1,2.1,0,0,0-.26.108l-.628.368-.542.325a.271.271,0,0,0-.163.238,5.19,5.19,0,0,0,.022,1.105ZM18.585,23.82a4.009,4.009,0,0,0,.5.78.347.347,0,0,0,.358.163l1.4-.163a1.754,1.754,0,0,0,.206,0v-.141l-1.029-.964a.3.3,0,0,0-.238,0,5.97,5.97,0,0,0-1.192.325Zm31.139-.087a6.5,6.5,0,0,0-.878-.314.336.336,0,0,0-.379.1l-.878.813a.813.813,0,0,0-.141.2c.087.13.206.119.314.141l.845.087h.3a.271.271,0,0,0,.26-.119c.184-.249.358-.509.531-.769C49.725,23.852,49.714,23.8,49.725,23.733ZM43.765,42.4v-.888a.412.412,0,0,0-.217-.39L42.6,40.57a.574.574,0,0,0-.2,0q0,.049,0,.1c.087.433.163.867.26,1.3a.314.314,0,0,0,.249.26l.607.217ZM34.112,14.523c.076-.065.119-.087.13-.119.163-.347.314-.693.466-1.083a.282.282,0,0,0,0-.314c-.119-.173-.238-.358-.368-.52a1.083,1.083,0,0,0-.163-.152,2.752,2.752,0,0,0-.574.758.3.3,0,0,0,0,.2,11.517,11.517,0,0,0,.509,1.235Z"
                    transform="translate(0.048 0)" />
                <path
                    d="M26.77,25.591a33.589,33.589,0,0,1,4.031-.141c.076-.184.141-.336.2-.5.314-.986.639-1.983.964-2.969a.769.769,0,0,1,.206-.433,12.289,12.289,0,0,1,.444,1.3c.141.412.271.845.412,1.257l.423,1.289a1.354,1.354,0,0,0,.574.087h3.554a3.359,3.359,0,0,1-.563.466l-.52.379-.553.4-.553.412-.52.379-.542.4a1.355,1.355,0,0,0,.119.52l.943,2.925c0,.141.152.282.076.455-.163,0-.238-.108-.347-.173l-2.535-1.831-.433-.3c-.6.4-1.148.834-1.712,1.235l-1.723,1.246c.2-.737.444-1.387.65-2.048s.433-1.3.618-1.929a.834.834,0,0,0-.358-.347L27.1,25.819Z"
                    transform="translate(1.874 1.641)" />
            </g>
            <g transform="translate(154.709 22.928)">
                <path
                    d="M48.532,63.358c.426-1.193.767-2.13,1.129-3.216.149-.447.3-.895.469-1.342a2.13,2.13,0,0,1,.149-.383.809.809,0,0,1,.98-.426.767.767,0,0,1,.469.959c-.107.469-.277.916-.426,1.363l-1.832,5.24a2.492,2.492,0,0,1-.213.554.788.788,0,0,1-1.385,0c0-.17-.149-.341-.234-.533l-1.512-3.749q-.128-.32-.32-.7a.745.745,0,0,0-.341.49l-1.6,3.962a3.3,3.3,0,0,1-.3.618.767.767,0,0,1-1.278,0,2.9,2.9,0,0,1-.234-.533l-2.13-6.2a2.257,2.257,0,0,1-.128-.4.831.831,0,0,1,.469-1,.809.809,0,0,1,1.022.511c.107.277.213.575.3.852l1.15,3.259c0,.213.17.4.277.682l.3-.6c.49-1.257,1-2.492,1.512-3.749a3.982,3.982,0,0,1,.32-.682.767.767,0,0,1,1.278,0,3.216,3.216,0,0,1,.277.618c.511,1.214,1,2.45,1.491,3.664C48.255,62.783,48.361,62.975,48.532,63.358Z"
                    transform="translate(39.527 25.694)" />
                <path
                    d="M25.8,62.317l.213.3a2.45,2.45,0,0,1,.256,2.62,2.513,2.513,0,0,1-2.13,1.363h-4.09c-.639,0-.916-.277-.959-.916V59.036c0-.809.277-1.065,1.065-1.086h3.451l.746.128A2.556,2.556,0,0,1,26.1,61.635a5.133,5.133,0,0,1-.3.682Zm-5.091-.788a25.816,25.816,0,0,0,3.089,0h.256a.916.916,0,0,0,.639-.895.937.937,0,0,0-.937-.98H20.9l-.213.107a11.8,11.8,0,0,0,.021,1.683Zm0,1.768a3.387,3.387,0,0,0,0,1.6,1.128,1.128,0,0,0,.341,0h2.769a1.321,1.321,0,0,0,.49,0,.788.788,0,0,0,.554-.66.724.724,0,0,0-.469-.809,1.6,1.6,0,0,0-.7-.149h-2.13Z"
                    transform="translate(16.165 25.692)" />
                <path
                    d="M31.953,63.319V59.293a3.43,3.43,0,0,1,0-.66.852.852,0,0,1,.937-.554.831.831,0,0,1,.746.788,3.75,3.75,0,0,1,0,.49v5.985a5.56,5.56,0,0,1,0,.6.809.809,0,0,1-1.278.554,3.28,3.28,0,0,1-.554-.533c-1.257-1.385-2.513-2.79-3.791-4.26-.17-.192-.32-.447-.575-.533s-.128.383-.128.575v3.451a3.707,3.707,0,0,1,0,.682.767.767,0,0,1-.809.682.746.746,0,0,1-.746-.746,3.77,3.77,0,0,1,0-.49v-6.6a.745.745,0,0,1,.447-.66.809.809,0,0,1,.873,0,5.091,5.091,0,0,1,.469.49l4.026,4.409a2.13,2.13,0,0,1,.256.341Z"
                    transform="translate(23.687 25.669)" />
                <path
                    d="M55.1,62.385a4.58,4.58,0,1,1-4.6-4.494,4.494,4.494,0,0,1,4.6,4.494Zm-4.537,2.9a2.9,2.9,0,1,0-2.9-2.9A2.9,2.9,0,0,0,50.562,65.282Z"
                    transform="translate(46.507 25.623)" />
                <path
                    d="M32.235,59.533a18.341,18.341,0,0,0,0,2.13,3.629,3.629,0,0,0,.469,0h2.684a.788.788,0,0,1,0,1.555,2.7,2.7,0,0,1-.6,0H32.277a4.026,4.026,0,0,0,0,1.342h4.09a3.3,3.3,0,0,1,.66,0,.767.767,0,0,1,.6.809.788.788,0,0,1-.682.745H31.7c-.852,0-1.108-.256-1.108-1.108v-6.39a1.726,1.726,0,0,1,0-.341.809.809,0,0,1,.873-.256h5.538a.788.788,0,0,1,.639.7.724.724,0,0,1-.49.788,2.131,2.131,0,0,1-.746.106H32.235Z"
                    transform="translate(29.156 25.728)" />
                <path
                    d="M55.229,63.49H53.1a2.9,2.9,0,0,0,0,.575c0,.554,0,1.129,0,1.683a.724.724,0,0,1-.277.6.788.788,0,0,1-1.278-.511,4.089,4.089,0,0,1,0-.511V59.187c0-.852.17-1.278,1.235-1.235s2.13,0,3.28,0a2.492,2.492,0,0,1,2.13,1.3,2.982,2.982,0,0,1-.7,3.664l-.32.234a.745.745,0,0,0,.149.575c.234.469.49.937.724,1.427a1.3,1.3,0,0,1,.17.554.7.7,0,0,1-.426.746.852.852,0,0,1-.937-.192,2.81,2.81,0,0,1-.256-.426l-.937-1.789A1.684,1.684,0,0,1,55.229,63.49ZM52.95,61.828H55.8a.873.873,0,0,0,.724-.362,1.278,1.278,0,0,0,.128-1.342.937.937,0,0,0-.959-.554H53.355a1.533,1.533,0,0,0-.4,0A18.107,18.107,0,0,0,52.95,61.828Z"
                    transform="translate(52.831 25.69)" />
                <path
                    d="M15.415,63.186c.3.6.575,1.108.852,1.64a5.433,5.433,0,0,1,.277.618.792.792,0,0,1-1.385.7,4.515,4.515,0,0,1-.256-.426c-.383-.746-.788-1.491-1.15-2.237a5.964,5.964,0,0,0-2.3,0v2.151a.767.767,0,0,1-.788.809.809.809,0,0,1-.809-.724v-3.2a.788.788,0,0,1,.831-.767h3.046a3.43,3.43,0,0,0,.66,0,1.065,1.065,0,0,0,.937-1.108,1.022,1.022,0,0,0-1-1.108H11.154a3.109,3.109,0,0,1-.767,0,.746.746,0,0,1-.6-.788.809.809,0,0,1,.682-.746h3.706a5.177,5.177,0,0,1,1,.17,2.428,2.428,0,0,1,1.193.873,3.089,3.089,0,0,1-.383,3.791Z"
                    transform="translate(5.654 25.76)" />
                <path
                    d="M58.324,63.233l-.383.32a.937.937,0,0,0-.469,1v.916a1.448,1.448,0,0,1,0,.426.767.767,0,0,1-.7.618.809.809,0,0,1-.831-.575,3.45,3.45,0,0,1,0-.66V59.207a2.853,2.853,0,0,1,0-.426.831.831,0,0,1,.788-.831.809.809,0,0,1,.809.809,3.6,3.6,0,0,1,0,.49v1.768a3.2,3.2,0,0,0,0,.469c.213,0,.3,0,.4-.128l3.3-2.876a5.176,5.176,0,0,1,.533-.426.767.767,0,0,1,.98.192.831.831,0,0,1,0,1,5.087,5.087,0,0,1-.49.469l-2.13,1.96-.426.426.49.511c.809.788,1.619,1.555,2.407,2.364a1.491,1.491,0,0,1,.362.533.809.809,0,0,1-1.3.809c-.362-.32-.724-.682-1.086-1.044l-1.811-1.747A3.472,3.472,0,0,0,58.324,63.233Z"
                    transform="translate(57.788 25.692)" />
                <path
                    d="M9.2,60.62l-.383.618L6.5,65.711a2.471,2.471,0,0,1-.3.511.767.767,0,0,1-.98.213.809.809,0,0,1-.4-.937c0-.17.17-.362.256-.533,1.044-2.13,2.13-4.09,3.174-6.135a2.279,2.279,0,0,1,.341-.575.767.767,0,0,1,1.235,0,4.006,4.006,0,0,1,.3.511c1.086,2.13,2.13,4.26,3.238,6.284a1.6,1.6,0,0,1,.192.618.724.724,0,0,1-.49.788.809.809,0,0,1-.895-.277,2.62,2.62,0,0,1-.3-.533l-2.13-4.26Z"
                    transform="translate(0 25.684)" />
                <path
                    d="M18.425,60.655,17.7,62c-.618,1.214-1.257,2.428-1.9,3.642a3.216,3.216,0,0,1-.32.6.746.746,0,0,1-.916.213.7.7,0,0,1-.469-.724,2.684,2.684,0,0,1,.277-.788c.447-.895.916-1.789,1.385-2.684s1.193-2.343,1.811-3.515a2.322,2.322,0,0,1,.3-.49.788.788,0,0,1,1.235,0,2.131,2.131,0,0,1,.213.362c1.129,2.13,2.258,4.26,3.365,6.39a2.13,2.13,0,0,1,.17.383.788.788,0,0,1-.4.916.767.767,0,0,1-.98-.234,3.9,3.9,0,0,1-.383-.639l-2.13-4.111a1.917,1.917,0,0,0-.533-.66Z"
                    transform="translate(10.524 25.692)" />
                <path
                    d="M39.921,59.588v5.5a3.451,3.451,0,0,1,0,.66.809.809,0,0,1-.873.724.788.788,0,0,1-.746-.788,5.172,5.172,0,0,1,0-.575V59.588H35.362a.788.788,0,0,1-.682-.831.831.831,0,0,1,.767-.767h7.221a.809.809,0,0,1,.639.7.724.724,0,0,1-.49.788,1.789,1.789,0,0,1-.66.106H39.921Z"
                    transform="translate(33.781 25.737)" />
                <path
                    d="M49.329,60.886H47.646a.937.937,0,0,1-.469-.149.511.511,0,0,1-.17-.511.554.554,0,0,1,.447-.426h3.813a.66.66,0,0,1,.49.618.6.6,0,0,1-.533.554,3.429,3.429,0,0,1-.66,0Z"
                    transform="translate(47.697 27.782)" />
            </g>
        </g>
    </g>
</svg>