<svg xmlns="http://www.w3.org/2000/svg" xmlns:xlink="http://www.w3.org/1999/xlink" width="264" height="57" viewBox="0 0 264 57"><defs><clipPath id="b"><rect width="264" height="57"/></clipPath></defs><g id="a" clip-path="url(#b)"><g transform="translate(-158.99 -41.999)"><g transform="translate(155.062 40.522)"><path d="M4.89,37.1c.114-.57.228-1.15.352-1.72.342-1.669.694-3.337,1.036-5.016l1.036-4.923c.062-.28.135-.56.176-.839s.155-.321.352-.394c.86-.269,1.71-.56,2.56-.85l4-1.327c.155-.052.332-.062.435-.207a.715.715,0,0,0-.187-.363L10.922,16.2l-.736-.985c.052-.135.093-.259.145-.383l2.757-6.343c.663-1.544,1.337-3.109,2-4.622a3.43,3.43,0,0,0,.155-.342c.073-.249.249-.311.487-.342.7-.062,1.409-.155,2.073-.228l1.876-.187,1.876-.207,1.824-.2,1.834-.2,2-.166.487-.052h.415c.8,1.088,1.575,2.125,2.353,3.244S32.022,7.4,32.8,8.481c.2,0,.238-.135.311-.228.456-.632.9-1.275,1.347-1.907l2.8-3.949.363-.5a1.036,1.036,0,0,1,.249,0l1.751.187,1.907.207,1.824.187,2.073.218,1.907.218L49.08,3.1l.974.093a.456.456,0,0,1,.425.321l.964,2.218q1.979,4.539,3.938,9.089c.176.383.218.321-.083.736l-4.073,5.752c-.093.124-.176.269-.259.394.083.187.259.187.383.238l2.529.839,4.145,1.389c.435.145.425.145.518.57l1.119,5.368c.363,1.793.736,3.586,1.1,5.379.093.425.155.86.28,1.275a.591.591,0,0,1-.218.643c-.871.788-1.731,1.586-2.591,2.384l-6.218,5.7-.249.228a.394.394,0,0,1-.446.093l-2.166-.725L44.489,43.52a.788.788,0,0,0-.5-.093c0,.062,0,.145,0,.218V51.49c-.269.218-10.55,6.332-11.068,6.571l-.342-.187-8.291-4.9L22.311,51.8l-.238-.145a.332.332,0,0,1-.187-.342V44.059a3.213,3.213,0,0,0,0-.446.124.124,0,0,0-.166-.124l-.394.114-5.441,1.814c-.394.135-.808.249-1.2.394a.394.394,0,0,1-.446-.093c-.352-.342-.715-.674-1.036-1.036L5.408,37.427A1.71,1.71,0,0,1,4.89,37.1Zm47.134,5.824.207-.166.881-.8,5.627-5.182a.881.881,0,0,0,.311-.4c-.632-3.109-1.275-6.146-1.917-9.224a.239.239,0,0,0-.073-.166.539.539,0,0,0-.155.062l-.249.218-4.063,3.762c-.777.725-1.555,1.451-2.353,2.166a.6.6,0,0,0-.2.653c.238,1.036.446,2.135.674,3.2.28,1.389.57,2.777.86,4.145.1.508.207,1.036.321,1.523C51.91,42.774,51.972,42.826,52.024,42.919ZM8.89,27a.247.247,0,0,1-.052.176l-.56,2.684c-.3,1.409-.591,2.829-.891,4.239l-.4,1.969a.508.508,0,0,0,.187.611c.083.062.155.145.238.218l4.27,3.949,2.073,1.9c.073.073.145.166.29.124a3.108,3.108,0,0,0,.1-.332l.839-4.145c.321-1.534.632-3.109.964-4.6a.663.663,0,0,0-.238-.715l-5.918-5.4-.643-.58C9.149,27.032,9.025,26.949,8.89,27Zm17.2-22.924a2.321,2.321,0,0,0-.249,0l-1.036.1-1.834.2-1.948.207-1.834.2c-.653.073-1.3.155-1.948.207s-.56.083-.757.529l-2.7,6.218-.788,1.8a.466.466,0,0,0-.073.415h.373l1.036-.114,1.865-.207,1.855-.228,1.917-.218,1.865-.2a4,4,0,0,0,.425-.073c.155-.28,3.617-8.167,3.8-8.7a.6.6,0,0,0,.031-.145Zm13.6,0v.1l3.658,8.384c0,.124.114.238.176.363l.58.093,2.653.269,2.643.3,2.2.238,1.1.1a1.606,1.606,0,0,0,.218,0,.777.777,0,0,0-.124-.446l-2.073-4.85L49.225,5.331a.518.518,0,0,0-.477-.373l-1.793-.176-1.917-.218-1.824-.2-1.876-.2-1.461-.093Zm-15,46.937.487.3,5.534,3.275c.611.363,1.223.715,1.824,1.036a.549.549,0,0,0,.715,0,.342.342,0,0,1,.1-.062l3.109-1.834,4.291-2.549c.114-.062.259-.1.321-.259a.539.539,0,0,0-.1-.114c-.518-.363-7.8-4.643-8.1-4.757q-4.031,2.425-8.042,4.809A1.657,1.657,0,0,0,24.695,51.013ZM37.888,4.854a1.119,1.119,0,0,0-.342.373L34.281,9.839l-.166.238a.249.249,0,0,0,0,.269l.2.269.943,1.337c.415.611.4.394.1,1.088-.446,1.036-.9,2.073-1.358,3.109a.632.632,0,0,0,0,.549q1.036,2.28,2,4.581a1.647,1.647,0,0,0,.135.228c.187,0,.228-.166.3-.269,1.036-1.389,1.979-2.788,2.964-4.145l2.073-2.974c.29-.4.29-.342.083-.819-1.161-2.695-2.332-5.379-3.5-8.073ZM31.67,10.191l-.269-.4-1.886-2.7L28.156,5.175c-.073-.114-.135-.238-.28-.29a.7.7,0,0,0-.228.383q-1.741,3.99-3.461,7.959c-.238.56-.249.425.1.922L27.721,19c.518.736,1.036,1.472,1.565,2.2.083.124.145.269.3.321s.166-.218.218-.342c.435-1.036.881-2.021,1.316-3.037.207-.477.4-.953.632-1.43a.549.549,0,0,0,0-.539,2.818,2.818,0,0,1-.114-.259l-1.327-3.047-.155-.425.757-1.109a13.65,13.65,0,0,0,.788-1.14Zm2.176,24.551a.808.808,0,0,0-.073.466v8.809a.56.56,0,0,0,.352.622H34.2l5.037,2.985,2.394,1.42a.611.611,0,0,0,.4.135q0-.155,0-.311V43.054c0-.373,0-.373-.352-.5l-.155-.052c-.591-.2-1.181-.4-1.783-.591a.529.529,0,0,1-.415-.446c-.155-.819-.321-1.627-.5-2.446-.093-.466-.2-.933-.29-1.4a.5.5,0,0,0-.259-.352l-.487-.29-3.6-2.073a.674.674,0,0,0-.321-.166Zm5.182-3.835v.29l.9,4.363a3.087,3.087,0,0,0,.093.446.415.415,0,0,0,.238.311l.207.124,3.119,1.834.352.218v2.394c0,.508,0,.487.466.653L49.06,43.1l.819.259a1.15,1.15,0,0,0,.2,0,1.368,1.368,0,0,0-.052-.549l-1.71-8.291a3.473,3.473,0,0,0-.166-.7l-.487-.176L42,31.758l-2.415-.8a.6.6,0,0,0-.477-.052Zm10.592-7.462-.269.363c-.383.539-.757,1.036-1.14,1.606-.083.124-.176.238-.249.332a3.43,3.43,0,0,1-.933-.052l-2.073-.228-1.181-.114a.57.57,0,0,0-.487.166l-1.036.922c-.808.736-1.606,1.482-2.4,2.228-.093.073-.207.135-.218.28a.466.466,0,0,0,.311.166l8.125,2.7c.58.187.446.269.953-.207l5.057-4.674,1.264-1.171a.529.529,0,0,0,.249-.321.434.434,0,0,0-.135-.083c-.466-.249-5.431-1.865-5.752-1.917Zm3.057-7.555-.176-.052-1.264-.155-1.865-.207-1.876-.2-1.876-.2c-.622-.062-1.244-.155-1.865-.207s-.446-.052-.715.321l-4.353,6.156c-.269.373-.539.757-.8,1.14-.062.073-.135.145-.062.259a.363.363,0,0,0,.114,0l.891.114,1.865.207c.643.073,1.285.114,1.917.207a.622.622,0,0,0,.622-.2c0-.062.124-.1.187-.166L46.033,20.5l.187-.166a.207.207,0,0,1,.228,0l.269.083,1.865.611.446.145.29-.363,2.415-3.42.8-1.13C52.573,16.14,52.677,16.057,52.677,15.891ZM16.808,21.208l.4-.124,1.71-.57.58-.187a.28.28,0,0,1,.332.083l.839.777,2.073,1.886a.674.674,0,0,0,.591.218c.383-.062.777-.073,1.171-.114l2.933-.321a2.011,2.011,0,0,0,.591-.124,1.192,1.192,0,0,0-.269-.477c-1.627-2.3-3.254-4.612-4.892-6.913-.394-.539-.228-.529-1.036-.435l-1.907.207-1.876.2-1.865.207-1.917.2-.974.124-.187.073a.964.964,0,0,0,.093.207C13.668,16.917,16.549,20.928,16.808,21.208Zm-6.622,4.259.332.332L13.979,29c1.036.933,2.073,1.865,3.037,2.809a.383.383,0,0,0,.477.1l.228-.073,4.073-1.358,3.938-1.327c.155-.052.332-.062.435-.207s-.145-.228-.238-.311L23.068,26l-.6-.56a.383.383,0,0,0-.332-.114l-2.321.249-1.751.187h-.394c-.58-.746-1.036-1.534-1.637-2.249-.342.062-4.892,1.544-5.627,1.834Zm5.731,17.867h.228l1.513-.5,3.8-1.275c.342-.114.352-.124.352-.487a.881.881,0,0,0,0-.166V38.9c0-.456,0-.415.352-.643l.249-.145c1.036-.611,2.073-1.233,3.109-1.834a.632.632,0,0,0,.342-.477c.1-.57.238-1.15.352-1.72.2-.933.394-1.865.58-2.8a.373.373,0,0,0,0-.373,1.036,1.036,0,0,0-.456.114l-6.9,2.3-1.368.446a.394.394,0,0,0-.3.342,1.606,1.606,0,0,1,0,.238c-.124.591-.238,1.181-.352,1.772l-1.43,6.84a.529.529,0,0,0-.052.373ZM29.172,29.043c-.238,1.14-.466,2.249-.694,3.358-.145.684-.29,1.368-.425,2.073a.358.358,0,0,0,.073.269,1.2,1.2,0,0,0,.415-.207l4.042-2.477.394-.207.373.207,3.233,2.073,1.119.694c.073,0,.155.114.269,0a1.7,1.7,0,0,0,0-.228c-.352-1.7-.684-3.4-1.036-5.089-.114-.549,0-.5.249-.777l2.767-2.57.86-.808c.083-.073.187-.135.155-.29l-.383-.083L38.717,24.8l-.974-.1c-.622-.073-1.244-.166-1.876-.207s-.549-.083-.746-.57l-1.9-4.622A.674.674,0,0,0,33,18.907a.308.308,0,0,0-.1.1,1.524,1.524,0,0,0-.145.29l-2.011,4.467c-.073.166-.155.321-.218.487a.383.383,0,0,1-.352.238h-.2l-1.036.114-1.855.2-1.793.176a.3.3,0,0,0-.311.166c.435.456.922.86,1.389,1.306s.912.85,1.378,1.285ZM23.71,49.252a1.586,1.586,0,0,0,.5-.228l7.327-4.342c.477-.28.4-.228.4-.736V34.9a.456.456,0,0,0,0-.155.7.7,0,0,0-.383.155c-1.244.736-2.487,1.482-3.731,2.207a.767.767,0,0,0-.4.57c-.259,1.285-.539,2.56-.788,3.845a.518.518,0,0,1-.4.446c-.383.114-.746.249-1.13.373l-1.036.332c-.363.124-.363.124-.363.487v5.731A.49.49,0,0,0,23.71,49.252Zm0-8.55h.124l.933-.3a.29.29,0,0,0,.2-.238c.083-.415.176-.829.249-1.244a1.161,1.161,0,0,0,0-.269,2.01,2.01,0,0,0-.249.1l-.6.352-.518.311a.259.259,0,0,0-.155.228A4.964,4.964,0,0,0,23.71,40.7ZM17.99,22.866a3.835,3.835,0,0,0,.477.746.332.332,0,0,0,.342.155l1.337-.155a1.677,1.677,0,0,0,.2,0v-.135l-.985-.922a.29.29,0,0,0-.228,0,5.71,5.71,0,0,0-1.14.311Zm29.785-.083a6.218,6.218,0,0,0-.839-.3.321.321,0,0,0-.363.093l-.839.777a.777.777,0,0,0-.135.187c.083.124.2.114.3.135l.808.083H47a.259.259,0,0,0,.249-.114c.176-.238.342-.487.508-.736C47.775,22.9,47.764,22.845,47.775,22.783Zm-5.7,17.856v-.85a.394.394,0,0,0-.207-.373l-.912-.529a.549.549,0,0,0-.187,0q0,.047,0,.093c.083.415.155.829.249,1.244a.3.3,0,0,0,.238.249l.58.207ZM32.841,13.974c.073-.062.114-.083.124-.114.155-.332.3-.663.446-1.036a.269.269,0,0,0,0-.3c-.114-.166-.228-.342-.352-.5a1.036,1.036,0,0,0-.155-.145,2.632,2.632,0,0,0-.549.725.29.29,0,0,0,0,.187,11.015,11.015,0,0,0,.487,1.181Z" transform="translate(0.048 0)" fill="#fff"/><path d="M26.77,25.416a32.127,32.127,0,0,1,3.855-.135c.073-.176.135-.321.187-.477.3-.943.611-1.9.922-2.84a.736.736,0,0,1,.2-.415,11.754,11.754,0,0,1,.425,1.244c.135.394.259.808.394,1.2l.4,1.233a1.3,1.3,0,0,0,.549.083h3.4a3.212,3.212,0,0,1-.539.446l-.5.363-.529.383-.529.394-.5.363-.518.383a1.3,1.3,0,0,0,.114.5l.9,2.8c0,.135.145.269.073.435-.155,0-.228-.1-.332-.166l-2.425-1.751-.415-.29c-.57.383-1.1.8-1.637,1.181l-1.648,1.192c.187-.7.425-1.327.622-1.959s.415-1.244.591-1.845a.8.8,0,0,0-.342-.332l-2.415-1.772Z" transform="translate(0.843 0.715)" fill="#fff"/></g><g transform="translate(229.646 -20.42)"><path d="M53.941,66.694c.689-1.929,1.24-3.444,1.825-5.2.241-.723.482-1.447.758-2.17a3.445,3.445,0,0,1,.241-.62,1.309,1.309,0,0,1,1.584-.689,1.24,1.24,0,0,1,.758,1.55c-.172.758-.448,1.481-.689,2.2l-2.962,8.473a4.029,4.029,0,0,1-.344.9,1.274,1.274,0,0,1-2.239,0c0-.276-.241-.551-.379-.861l-2.445-6.062q-.207-.517-.517-1.137a1.205,1.205,0,0,0-.551.792L46.4,70.276a5.337,5.337,0,0,1-.482,1,1.24,1.24,0,0,1-2.066,0,4.682,4.682,0,0,1-.379-.861L40.027,60.391a3.65,3.65,0,0,1-.207-.654,1.343,1.343,0,0,1,.758-1.619,1.309,1.309,0,0,1,1.653.827c.172.448.344.93.482,1.378l1.86,5.27c0,.344.276.654.448,1.1l.482-.964c.792-2.032,1.619-4.03,2.445-6.062a6.439,6.439,0,0,1,.517-1.1,1.24,1.24,0,0,1,2.067,0,5.2,5.2,0,0,1,.448,1c.827,1.963,1.619,3.961,2.411,5.924C53.493,65.764,53.666,66.074,53.941,66.694Z" transform="translate(85.492 25.776)" fill="#fff"/><path d="M29.939,65.011l.344.482a3.961,3.961,0,0,1,.413,4.236,4.064,4.064,0,0,1-3.444,2.2H20.64c-1.033,0-1.481-.448-1.55-1.481V59.707c0-1.309.448-1.722,1.722-1.757h5.58l1.205.207a4.133,4.133,0,0,1,2.824,5.752,8.3,8.3,0,0,1-.482,1.1Zm-8.232-1.274a41.742,41.742,0,0,0,4.994,0h.413a1.481,1.481,0,0,0,1.033-1.447,1.515,1.515,0,0,0-1.515-1.584H22.018l-.344.172a19.08,19.08,0,0,0,.034,2.721Zm0,2.859a5.476,5.476,0,0,0,0,2.583,1.825,1.825,0,0,0,.551,0h4.477a2.136,2.136,0,0,0,.792,0,1.274,1.274,0,0,0,.9-1.068,1.171,1.171,0,0,0-.758-1.309,2.583,2.583,0,0,0-1.137-.241H23.085Z" transform="translate(34.962 25.771)" fill="#fff"/><path d="M35.782,66.644V60.134a5.546,5.546,0,0,1,0-1.068,1.378,1.378,0,0,1,1.515-.9A1.343,1.343,0,0,1,38.5,59.446a6.064,6.064,0,0,1,0,.792v9.678a8.99,8.99,0,0,1,0,.964,1.309,1.309,0,0,1-2.067.9,5.3,5.3,0,0,1-.9-.861c-2.032-2.239-4.064-4.512-6.131-6.888-.276-.31-.517-.723-.93-.861s-.207.62-.207.93v5.58a5.994,5.994,0,0,1,0,1.1,1.24,1.24,0,0,1-1.309,1.1,1.205,1.205,0,0,1-1.205-1.205,6.1,6.1,0,0,1,0-.792V59.2a1.205,1.205,0,0,1,.723-1.068,1.309,1.309,0,0,1,1.412,0,8.233,8.233,0,0,1,.758.792l6.509,7.129a3.445,3.445,0,0,1,.413.551Z" transform="translate(51.231 25.723)" fill="#fff"/><path d="M60.749,65.159a7.4,7.4,0,1,1-7.439-7.267,7.267,7.267,0,0,1,7.439,7.267Zm-7.336,4.684a4.684,4.684,0,1,0-4.684-4.684A4.684,4.684,0,0,0,53.413,69.843Z" transform="translate(100.588 25.623)" fill="#fff"/><path d="M33.252,60.49a29.657,29.657,0,0,0,0,3.444,5.864,5.864,0,0,0,.758,0h4.34a1.274,1.274,0,0,1,0,2.514,4.374,4.374,0,0,1-.964,0H33.321a6.51,6.51,0,0,0,0,2.17h6.613a5.34,5.34,0,0,1,1.068,0,1.24,1.24,0,0,1,.964,1.309,1.274,1.274,0,0,1-1.1,1.205H32.391c-1.378,0-1.791-.413-1.791-1.791V59.009a2.79,2.79,0,0,1,0-.551,1.309,1.309,0,0,1,1.412-.413h8.955A1.274,1.274,0,0,1,42,59.182a1.171,1.171,0,0,1-.792,1.274A3.445,3.445,0,0,1,40,60.628H33.252Z" transform="translate(63.06 25.849)" fill="#fff"/><path d="M57.508,66.908H54.063a4.683,4.683,0,0,0,0,.93c0,.9,0,1.825,0,2.721a1.171,1.171,0,0,1-.448.964,1.274,1.274,0,0,1-2.067-.827,6.614,6.614,0,0,1,0-.827V59.951c0-1.378.276-2.066,2-2s3.444,0,5.3,0a4.03,4.03,0,0,1,3.444,2.1,4.822,4.822,0,0,1-1.137,5.924l-.517.379a1.205,1.205,0,0,0,.241.93c.379.758.792,1.515,1.171,2.308a2.1,2.1,0,0,1,.276.9,1.137,1.137,0,0,1-.689,1.205,1.378,1.378,0,0,1-1.515-.31,4.544,4.544,0,0,1-.413-.689L58.2,67.8A2.723,2.723,0,0,1,57.508,66.908Zm-3.685-2.686h4.615a1.412,1.412,0,0,0,1.171-.585,2.066,2.066,0,0,0,.207-2.17,1.515,1.515,0,0,0-1.55-.9H54.477a2.479,2.479,0,0,0-.654,0A29.276,29.276,0,0,0,53.822,64.222Z" transform="translate(114.266 25.768)" fill="#fff"/><path d="M18.885,66.379c.482.964.93,1.791,1.378,2.652a8.784,8.784,0,0,1,.448,1,1.281,1.281,0,0,1-2.239,1.137,7.3,7.3,0,0,1-.413-.689c-.62-1.205-1.274-2.411-1.86-3.616a9.644,9.644,0,0,0-3.72,0V70.34A1.24,1.24,0,0,1,11.2,71.649,1.309,1.309,0,0,1,9.9,70.478V65.312a1.274,1.274,0,0,1,1.343-1.24h4.925a5.546,5.546,0,0,0,1.068,0,1.722,1.722,0,0,0,1.515-1.791,1.653,1.653,0,0,0-1.619-1.791H12a5.027,5.027,0,0,1-1.24,0,1.205,1.205,0,0,1-.964-1.274,1.309,1.309,0,0,1,1.1-1.205h5.993a8.37,8.37,0,0,1,1.619.276A3.926,3.926,0,0,1,20.435,59.7a4.994,4.994,0,0,1-.62,6.131Z" transform="translate(12.229 25.918)" fill="#fff"/><path d="M59.806,66.492l-.62.517a1.515,1.515,0,0,0-.758,1.619v1.481a2.342,2.342,0,0,1,0,.689,1.24,1.24,0,0,1-1.137,1,1.309,1.309,0,0,1-1.343-.93,5.578,5.578,0,0,1,0-1.068V59.982a4.613,4.613,0,0,1,0-.689,1.343,1.343,0,0,1,1.274-1.343,1.309,1.309,0,0,1,1.309,1.309,5.823,5.823,0,0,1,0,.792V62.91a5.168,5.168,0,0,0,0,.758c.344,0,.482,0,.654-.207l5.338-4.65a8.369,8.369,0,0,1,.861-.689,1.24,1.24,0,0,1,1.584.31,1.343,1.343,0,0,1,0,1.619,8.227,8.227,0,0,1-.792.758l-3.444,3.169-.689.689.792.827c1.309,1.274,2.618,2.514,3.892,3.823a2.411,2.411,0,0,1,.585.861,1.309,1.309,0,0,1-2.1,1.309c-.586-.517-1.171-1.1-1.757-1.688l-2.928-2.824A5.614,5.614,0,0,0,59.806,66.492Z" transform="translate(124.987 25.771)" fill="#fff"/><path d="M11.93,62.272l-.62,1L7.556,70.5a4,4,0,0,1-.482.827,1.24,1.24,0,0,1-1.584.344,1.309,1.309,0,0,1-.654-1.515c0-.276.276-.586.413-.861,1.688-3.444,3.444-6.613,5.132-9.919a3.685,3.685,0,0,1,.551-.93,1.24,1.24,0,0,1,2,0,6.476,6.476,0,0,1,.482.827c1.757,3.444,3.444,6.888,5.235,10.16a2.583,2.583,0,0,1,.31,1,1.171,1.171,0,0,1-.792,1.274,1.309,1.309,0,0,1-1.447-.448,4.236,4.236,0,0,1-.482-.861l-3.444-6.888Z" transform="translate(0 25.755)" fill="#fff"/><path d="M21.095,62.325l-1.171,2.17c-1,1.963-2.032,3.926-3.065,5.89a5.2,5.2,0,0,1-.517.964,1.205,1.205,0,0,1-1.481.344,1.137,1.137,0,0,1-.758-1.171,4.339,4.339,0,0,1,.448-1.274c.723-1.447,1.481-2.893,2.239-4.34s1.929-3.789,2.928-5.683a3.754,3.754,0,0,1,.482-.792,1.274,1.274,0,0,1,2,0,3.445,3.445,0,0,1,.344.586c1.825,3.444,3.651,6.888,5.442,10.332a3.445,3.445,0,0,1,.276.62,1.274,1.274,0,0,1-.654,1.481,1.24,1.24,0,0,1-1.584-.379,6.3,6.3,0,0,1-.62-1.033l-3.444-6.647a3.1,3.1,0,0,0-.861-1.068Z" transform="translate(22.763 25.771)" fill="#fff"/><path d="M43.154,60.573v8.886a5.58,5.58,0,0,1,0,1.068A1.309,1.309,0,0,1,41.742,71.7a1.274,1.274,0,0,1-1.205-1.274,8.361,8.361,0,0,1,0-.93v-8.92H35.784a1.274,1.274,0,0,1-1.1-1.343,1.343,1.343,0,0,1,1.24-1.24H47.6a1.309,1.309,0,0,1,1.033,1.137,1.171,1.171,0,0,1-.792,1.274,2.892,2.892,0,0,1-1.068.172H43.154Z" transform="translate(73.065 25.869)" fill="#fff"/><path d="M50.77,61.557H48.049a1.516,1.516,0,0,1-.758-.241.827.827,0,0,1-.276-.827.9.9,0,0,1,.723-.689H53.9a1.068,1.068,0,0,1,.792,1,.964.964,0,0,1-.861.9,5.545,5.545,0,0,1-1.068,0Z" transform="translate(103.162 30.293)" fill="#fff"/></g></g></g></svg>