<svg xmlns="http://www.w3.org/2000/svg" width="10" height="9" viewBox="0 0 10 9">
  <defs>
    <style>
      .cls-1 {
        fill: #fff;
        fill-rule: evenodd;
        opacity: 0.5;
      }
    </style>
  </defs>
  <path class="cls-1" d="M540.713,400a0.694,0.694,0,0,1-.506-0.22,0.775,0.775,0,0,1,0-1.061l3.07-3.223-3.07-3.222a0.776,0.776,0,0,1,0-1.062,0.691,0.691,0,0,1,1.011,0l3.576,3.753a0.776,0.776,0,0,1,0,1.062l-3.576,3.753A0.694,0.694,0,0,1,540.713,400Zm-5.007,0a0.7,0.7,0,0,1-.506-0.22,0.777,0.777,0,0,1,0-1.061l3.071-3.223-3.071-3.222a0.778,0.778,0,0,1,0-1.062,0.691,0.691,0,0,1,1.011,0l3.577,3.753a0.778,0.778,0,0,1,0,1.062l-3.577,3.753A0.692,0.692,0,0,1,535.706,400Z" transform="translate(-535 -391)"/>
</svg>
