<svg xmlns="http://www.w3.org/2000/svg" xmlns:xlink="http://www.w3.org/1999/xlink" width="692" height="645" viewBox="0 0 692 645"><defs><linearGradient id="a" x1="0.012" y1="0.579" x2="0.966" y2="0.582" gradientUnits="objectBoundingBox"><stop offset="0" stop-color="#ffee76"/><stop offset="1" stop-color="#ffbd48"/></linearGradient><linearGradient id="b" x1="0.801" y1="0.794" x2="0" gradientUnits="objectBoundingBox"><stop offset="0" stop-color="#ffcb57"/><stop offset="1" stop-color="#d06945"/></linearGradient><clipPath id="d"><rect width="692" height="645"/></clipPath></defs><g id="c" clip-path="url(#d)"><g transform="translate(-1008 -194.705)"><path d="M526.893,676.762,243.754,469.269a50,50,0,0,1-18.037-55.66L334.042,77.334a50,50,0,0,1,47.592-34.669h349.63a50,50,0,0,1,47.591,34.67L887.18,413.609a50,50,0,0,1-18.036,55.66L586,676.762a50,50,0,0,1-59.11,0Z" transform="translate(806.552 152.04)" fill="#193a51"/><path d="M7841.335,237.06s108.43,1.845,110.173,0c-.129-2.075-11.363-2.141-17.621-3.129s-10.868-.165-13.174-1.976-4.776-3.952-9.223-3.788-11.221,2.544-12.868,1.062-8.451-6.465-8.451-6.465-5.359-3.819-14.088-.525-11.271,3.912-14.565,2.924-7.044-5.3-10.831-5.79-5.124-1.431-14.018,4.5-12.05,5.327-15.508,4.3-7.285-2.692-12.227,1.549-12.476,7.55-5.559,7.344S7841.335,237.06,7841.335,237.06Z" transform="translate(-6792.179 278.708)" fill="#445f72"/><path d="M7829.637,231.875s77.3,1.316,78.542,0c-.092-1.48-8.1-1.526-12.562-2.231s-7.748-.117-9.392-1.409-3.4-2.818-6.575-2.7-8,1.813-9.173.757-6.025-4.609-6.025-4.609-3.821-2.722-10.043-.374-8.036,2.789-10.384,2.084-5.021-3.776-7.722-4.128-3.653-1.02-9.993,3.206-8.59,3.8-11.056,3.064-5.194-1.919-8.716,1.1-8.894,5.382-3.963,5.236S7829.637,231.875,7829.637,231.875Z" transform="translate(-6272.679 170.866)" fill="#fff" opacity="0.19"/><g transform="translate(1267.953 392.646)" opacity="0.88"><path d="M4.89,116.537c.371-1.856.743-3.746,1.148-5.6C7.151,105.5,8.3,100.066,9.413,94.6l3.375-16.032c.2-.911.439-1.823.574-2.734s.506-1.046,1.148-1.283c2.8-.878,5.569-1.823,8.337-2.768l13.028-4.32c.506-.169,1.08-.2,1.418-.675a2.329,2.329,0,0,0-.608-1.181L24.533,48.494l-2.4-3.206c.169-.439.3-.844.473-1.249l8.978-20.656c2.16-5.029,4.354-10.125,6.514-15.053a11.17,11.17,0,0,0,.506-1.114c.236-.81.81-1.013,1.586-1.114,2.3-.2,4.59-.506,6.75-.743l6.109-.608,6.109-.675,5.94-.641,5.974-.641,6.514-.54,1.586-.169h1.35C83.126,5.63,85.657,9,88.188,12.65s5.063,7.189,7.594,10.7c.641,0,.776-.439,1.013-.743,1.485-2.059,2.936-4.151,4.388-6.21L110.3,3.537l1.181-1.62a3.375,3.375,0,0,1,.81,0l5.7.608,6.21.675,5.94.608,6.75.709,6.21.709,5.7.608,3.173.3a1.485,1.485,0,0,1,1.384,1.046l3.139,7.223q6.446,14.783,12.826,29.6c.574,1.249.709,1.046-.27,2.4L155.793,65.134c-.3.405-.574.878-.844,1.283.27.608.844.608,1.249.776l8.235,2.734,13.5,4.523c1.418.473,1.384.473,1.688,1.856l3.645,17.483c1.181,5.839,2.4,11.678,3.578,17.517.3,1.384.506,2.8.911,4.151a1.924,1.924,0,0,1-.709,2.093c-2.835,2.565-5.636,5.164-8.438,7.763l-20.251,18.563-.81.743a1.283,1.283,0,0,1-1.451.3l-7.054-2.363-15.188-5.1a2.565,2.565,0,0,0-1.62-.3v26.259c-.878.709-34.359,20.622-36.046,21.4l-1.114-.608-27-15.964-6.447-3.814-.776-.473a1.08,1.08,0,0,1-.608-1.114V139.218a10.463,10.463,0,0,0,0-1.451.405.405,0,0,0-.54-.405l-1.283.371L40.7,143.639c-1.283.439-2.633.81-3.915,1.283a1.283,1.283,0,0,1-1.451-.3c-1.148-1.114-2.329-2.194-3.375-3.375L6.578,117.617a5.57,5.57,0,0,1-1.688-1.08Zm153.5,18.968.675-.54,2.869-2.6,18.327-16.876a2.869,2.869,0,0,0,1.013-1.316c-2.059-10.125-4.151-20.015-6.244-30.039a.78.78,0,0,0-.236-.54,1.755,1.755,0,0,0-.506.2l-.81.709L160.248,96.759c-2.531,2.363-5.063,4.725-7.662,7.054a1.958,1.958,0,0,0-.641,2.126c.776,3.375,1.451,6.953,2.194,10.429.911,4.523,1.856,9.045,2.8,13.5.338,1.654.675,3.375,1.046,4.961C158.02,135.033,158.223,135.2,158.391,135.505ZM17.918,83.663a.8.8,0,0,1-.169.574l-1.823,8.742c-.979,4.59-1.924,9.214-2.9,13.8L11.708,113.2a1.654,1.654,0,0,0,.608,1.991c.27.2.506.473.776.709L27,128.755l6.75,6.177c.236.236.473.54.945.405a10.121,10.121,0,0,0,.338-1.08l2.734-13.5c1.046-5,2.059-10.125,3.139-14.986a2.16,2.16,0,0,0-.776-2.329L20.854,85.857l-2.093-1.89C18.762,83.764,18.357,83.494,17.918,83.663ZM73.945,9a7.561,7.561,0,0,0-.81,0l-3.375.338-5.974.641-6.345.675-5.974.641c-2.126.236-4.219.506-6.345.675s-1.823.27-2.464,1.721L33.849,33.947,31.284,39.82a1.519,1.519,0,0,0-.236,1.35h1.215l3.375-.371,6.075-.675,6.042-.743L54,38.672l6.075-.641a13.028,13.028,0,0,0,1.384-.236c.506-.911,11.779-26.6,12.387-28.317a1.957,1.957,0,0,0,.1-.473Zm44.282,0v.338l11.914,27.3c0,.405.371.776.574,1.181l1.89.3,8.64.878,8.607.979,7.155.776,3.578.338a5.232,5.232,0,0,0,.709,0,2.532,2.532,0,0,0-.405-1.451l-6.75-15.8-4.86-10.767a1.688,1.688,0,0,0-1.553-1.215l-5.839-.574-6.244-.709L129.7,9.95l-6.109-.641L118.835,9ZM69.389,161.865l1.586.979L89,173.509c1.991,1.181,3.983,2.329,5.94,3.375a1.789,1.789,0,0,0,2.329,0,1.114,1.114,0,0,1,.337-.2l10.125-5.974,13.973-8.3c.371-.2.844-.337,1.046-.844a1.755,1.755,0,0,0-.338-.371C120.725,160.009,97,146.069,96.019,145.7q-13.129,7.9-26.191,15.661A5.393,5.393,0,0,0,69.389,161.865ZM112.354,11.536a3.645,3.645,0,0,0-1.114,1.215L100.609,27.771l-.54.776a.81.81,0,0,0,0,.878l.641.878,3.071,4.354c1.35,1.991,1.316,1.283.338,3.544-1.451,3.375-2.936,6.75-4.421,10.125a2.059,2.059,0,0,0,0,1.789q3.375,7.425,6.514,14.918a5.364,5.364,0,0,0,.439.743c.608,0,.743-.54.979-.878,3.375-4.523,6.447-9.079,9.653-13.5l6.75-9.687c.945-1.316.945-1.114.27-2.666-3.78-8.775-7.594-17.517-11.408-26.292ZM92.1,28.918,91.226,27.6l-6.143-8.809-4.421-6.21c-.236-.371-.439-.776-.911-.945a2.3,2.3,0,0,0-.743,1.249q-5.67,12.994-11.273,25.921c-.776,1.823-.81,1.384.338,3l11.172,15.8c1.688,2.4,3.375,4.793,5.1,7.155.27.405.473.878.979,1.046s.54-.709.709-1.114c1.418-3.375,2.869-6.582,4.286-9.889.675-1.553,1.316-3.105,2.059-4.658a1.789,1.789,0,0,0,0-1.755A9.18,9.18,0,0,1,92,47.549l-4.32-9.923-.506-1.384,2.464-3.611A44.451,44.451,0,0,0,92.2,28.918Zm7.088,79.957a2.632,2.632,0,0,0-.236,1.519v28.689a1.823,1.823,0,0,0,1.148,2.025h.236l16.4,9.72,7.8,4.624a1.992,1.992,0,0,0,1.316.439q0-.506,0-1.013V135.944c0-1.215,0-1.215-1.148-1.62l-.506-.169c-1.924-.641-3.848-1.316-5.805-1.924a1.721,1.721,0,0,1-1.35-1.451c-.506-2.666-1.046-5.3-1.62-7.965-.3-1.519-.641-3.038-.945-4.556a1.62,1.62,0,0,0-.844-1.148l-1.586-.945-11.712-6.75a2.194,2.194,0,0,0-1.046-.54Zm16.876-12.488v.945L119,111.542a10.051,10.051,0,0,0,.3,1.451,1.35,1.35,0,0,0,.776,1.013l.675.405,10.159,5.974,1.148.709v7.8c0,1.654,0,1.586,1.519,2.126l15.154,5.063,2.666.844a3.747,3.747,0,0,0,.641,0,4.455,4.455,0,0,0-.169-1.789l-5.569-27a11.309,11.309,0,0,0-.54-2.3l-1.586-.574-18.428-6.109-7.864-2.6a1.958,1.958,0,0,0-1.553-.169Zm34.494-24.3-.878,1.181c-1.249,1.755-2.464,3.375-3.713,5.231-.27.405-.574.776-.81,1.08a11.172,11.172,0,0,1-3.038-.169l-6.75-.743-3.848-.371a1.856,1.856,0,0,0-1.586.54l-3.375,3c-2.633,2.4-5.231,4.826-7.83,7.257-.3.236-.675.439-.709.911a1.519,1.519,0,0,0,1.013.54L145.5,99.357c1.89.608,1.451.878,3.105-.675l16.471-15.222,4.118-3.814A1.721,1.721,0,0,0,170,78.6a1.413,1.413,0,0,0-.439-.27c-1.519-.81-17.686-6.075-18.732-6.244Zm9.957-24.6-.574-.169-4.118-.506-6.075-.675-6.109-.641-6.109-.641c-2.025-.2-4.05-.506-6.075-.675s-1.451-.169-2.329,1.046L114.953,65.269c-.878,1.215-1.755,2.464-2.6,3.713-.2.236-.439.473-.2.844a1.182,1.182,0,0,0,.371,0l2.9.371,6.075.675c2.093.236,4.185.371,6.244.675a2.025,2.025,0,0,0,2.025-.641c0-.2.405-.338.608-.54l8.505-7.864.607-.54a.675.675,0,0,1,.743,0l.878.27,6.075,1.991,1.451.473.945-1.181,7.864-11.138,2.6-3.679C160.18,48.292,160.518,48.022,160.518,47.482ZM43.7,64.8l1.316-.405,5.569-1.856,1.89-.608a.911.911,0,0,1,1.08.27l2.734,2.531,6.75,6.143a2.194,2.194,0,0,0,1.924.709c1.249-.2,2.531-.236,3.814-.371l9.552-1.046a6.548,6.548,0,0,0,1.924-.405,3.882,3.882,0,0,0-.878-1.553c-5.3-7.493-10.6-15.019-15.931-22.512-1.283-1.755-.743-1.721-3.375-1.418l-6.21.675-6.109.641-6.075.675-6.244.641-3.173.405-.608.236a3.139,3.139,0,0,0,.3.675C33.477,50.823,42.86,63.885,43.7,64.8ZM22.137,78.668l1.08,1.08L34.49,90.177c3.375,3.038,6.75,6.075,9.889,9.147a1.249,1.249,0,0,0,1.553.338l.743-.236L59.939,95l12.826-4.32c.506-.169,1.08-.2,1.418-.675s-.473-.743-.776-1.013L64.09,80.389l-1.958-1.823a1.249,1.249,0,0,0-1.08-.371l-7.56.81-5.7.608H46.505c-1.89-2.43-3.375-5-5.333-7.324-1.114.2-15.931,5.029-18.327,5.974ZM40.8,136.855h.743l4.928-1.62,12.387-4.151c1.114-.371,1.148-.4,1.148-1.586a2.867,2.867,0,0,0,0-.54V122.41c0-1.485,0-1.35,1.148-2.093l.81-.473c3.375-1.991,6.75-4.016,10.125-5.974a2.059,2.059,0,0,0,1.114-1.553c.338-1.856.776-3.746,1.148-5.6.641-3.038,1.283-6.075,1.89-9.113a1.215,1.215,0,0,0,0-1.215,3.375,3.375,0,0,0-1.485.371l-22.478,7.493L47.822,105.7a1.283,1.283,0,0,0-.979,1.114,5.23,5.23,0,0,1,0,.776c-.405,1.924-.776,3.848-1.148,5.771L41.038,135.64a1.721,1.721,0,0,0-.169,1.215ZM83.97,90.312c-.776,3.713-1.519,7.324-2.261,10.935-.473,2.228-.945,4.455-1.384,6.75a1.167,1.167,0,0,0,.236.878,3.916,3.916,0,0,0,1.35-.675l13.163-8.067,1.283-.675,1.215.675,10.53,6.75,3.645,2.261c.236,0,.506.371.878,0a5.538,5.538,0,0,0,0-.743c-1.148-5.535-2.228-11.07-3.375-16.572-.371-1.789,0-1.62.81-2.531l9.012-8.37,2.8-2.633c.27-.236.608-.439.506-.945l-1.249-.27-6.075-.574-3.173-.338c-2.025-.236-4.05-.54-6.109-.675s-1.789-.27-2.43-1.856L97.166,58.586a2.194,2.194,0,0,0-.743-1.283,1,1,0,0,0-.338.338,4.962,4.962,0,0,0-.473.945L89.066,73.133c-.236.54-.506,1.046-.709,1.586a1.249,1.249,0,0,1-1.148.776h-.641l-3.375.371-6.042.641-5.839.574a.968.968,0,0,0-1.013.54c1.418,1.485,3,2.8,4.523,4.253s2.97,2.768,4.489,4.185ZM66.183,156.127a5.164,5.164,0,0,0,1.62-.743l23.862-14.142c1.553-.911,1.316-.743,1.316-2.4V109.382a1.484,1.484,0,0,0,0-.506,2.3,2.3,0,0,0-1.249.506c-4.05,2.4-8.1,4.826-12.151,7.189a2.5,2.5,0,0,0-1.316,1.856c-.844,4.185-1.755,8.337-2.565,12.522a1.688,1.688,0,0,1-1.316,1.451c-1.249.371-2.43.81-3.679,1.215L67.33,134.7c-1.181.405-1.181.405-1.181,1.586v18.665A1.6,1.6,0,0,0,66.183,156.127Zm0-27.845h.405l3.038-.979a.945.945,0,0,0,.641-.776c.27-1.35.574-2.7.81-4.05a3.779,3.779,0,0,0,0-.878,6.546,6.546,0,0,0-.81.338l-1.958,1.148L66.621,124.1a.844.844,0,0,0-.506.743,16.167,16.167,0,0,0,.067,3.443ZM47.552,70.2a12.488,12.488,0,0,0,1.553,2.43,1.08,1.08,0,0,0,1.114.506l4.354-.506a5.463,5.463,0,0,0,.641,0v-.439l-3.206-3a.945.945,0,0,0-.743,0A18.6,18.6,0,0,0,47.552,70.2Zm97-.27a20.252,20.252,0,0,0-2.734-.979,1.046,1.046,0,0,0-1.181.3L137.9,71.783a2.531,2.531,0,0,0-.439.608c.27.405.641.371.979.439l2.633.27h.945a.844.844,0,0,0,.81-.371c.574-.776,1.114-1.586,1.654-2.4C144.553,70.3,144.52,70.129,144.553,69.926ZM125.99,128.08v-2.768a1.283,1.283,0,0,0-.675-1.215l-2.97-1.721a1.788,1.788,0,0,0-.607,0q-.007.152,0,.3c.27,1.35.506,2.7.81,4.05a.979.979,0,0,0,.776.81l1.89.675ZM95.918,41.238c.236-.2.371-.27.405-.371.506-1.08.979-2.16,1.451-3.375a.878.878,0,0,0,0-.979c-.371-.54-.743-1.114-1.148-1.62a3.374,3.374,0,0,0-.506-.473,8.572,8.572,0,0,0-1.789,2.363.945.945,0,0,0,0,.608,35.872,35.872,0,0,0,1.586,3.848Z" transform="translate(0.048 0)" fill="#fff"/><path d="M26.77,34.139A104.628,104.628,0,0,1,39.326,33.7c.236-.574.439-1.046.608-1.553.979-3.071,1.991-6.177,3-9.248a2.4,2.4,0,0,1,.641-1.35,38.282,38.282,0,0,1,1.384,4.05c.439,1.283.844,2.633,1.283,3.915l1.316,4.016a4.219,4.219,0,0,0,1.789.27H60.42a10.462,10.462,0,0,1-1.755,1.451l-1.62,1.181-1.721,1.249L53.6,38.966l-1.62,1.181L50.295,41.4a4.22,4.22,0,0,0,.371,1.62L53.6,52.129c0,.439.473.878.236,1.418-.506,0-.743-.338-1.08-.54l-7.9-5.7-1.35-.945c-1.856,1.249-3.578,2.6-5.333,3.848l-5.366,3.881c.608-2.3,1.384-4.32,2.025-6.379s1.35-4.05,1.924-6.008a2.6,2.6,0,0,0-1.114-1.08l-7.864-5.771Z" transform="translate(52.016 46.689)" fill="#fff"/></g><g transform="translate(118.41 9.654)" opacity="0.11"><circle cx="2" cy="2" r="2" transform="translate(1171.59 225.346)" fill="#fff"/><circle cx="2" cy="2" r="2" transform="translate(1131.59 258.346)" fill="#fff"/><circle cx="2" cy="2" r="2" transform="translate(1000.59 327.346)" fill="#fff"/><circle cx="2" cy="2" r="2" transform="translate(1020.59 264.346)" fill="#fff"/><circle cx="2" cy="2" r="2" transform="translate(1081.59 252.346)" fill="#fff"/><circle cx="2" cy="2" r="2" transform="translate(1103.59 217.346)" fill="#fff"/><circle cx="2" cy="2" r="2" transform="translate(1047.59 234.346)" fill="#fff"/><circle cx="2" cy="2" r="2" transform="translate(1039.59 298.346)" fill="#fff"/><circle cx="2" cy="2" r="2" transform="translate(1079.59 284.346)" fill="#fff"/><circle cx="2" cy="2" r="2" transform="translate(1138.59 331.346)" fill="#fff"/><circle cx="2" cy="2" r="2" transform="translate(1195.59 325.346)" fill="#fff"/><circle cx="2" cy="2" r="2" transform="translate(1150.59 209.346)" fill="#fff"/><circle cx="2" cy="2" r="2" transform="translate(1162.59 288.346)" fill="#fff"/><circle cx="2" cy="2" r="2" transform="translate(1184.59 260.346)" fill="#fff"/><circle cx="2.5" cy="2.5" r="2.5" transform="translate(1257.59 232.346)" fill="#fff"/><circle cx="2.5" cy="2.5" r="2.5" transform="translate(1275.59 348.346)" fill="#fff"/><circle cx="3" cy="3" r="3" transform="translate(1210.59 212.346)" fill="#fff"/><circle cx="3" cy="3" r="3" transform="translate(1070.59 331.346)" fill="#fff"/><circle cx="3" cy="3" r="3" transform="translate(1051.59 196.346)" fill="#fff"/><circle cx="3" cy="3" r="3" transform="translate(1118.59 278.346)" fill="#fff"/><circle cx="3" cy="3" r="3" transform="translate(1272.59 296.346)" fill="#fff"/><circle cx="3.5" cy="3.5" r="3.5" transform="translate(1305.59 240.346)" fill="#fff"/><circle cx="3.5" cy="3.5" r="3.5" transform="translate(1425.59 224.346)" fill="#fff"/><circle cx="1.5" cy="1.5" r="1.5" transform="translate(1414.59 304.346)" fill="#fff"/><circle cx="3" cy="3" r="3" transform="translate(1475.59 317.346)" fill="#fff"/><circle cx="3" cy="3" r="3" transform="translate(1399.59 344.346)" fill="#fff"/><circle cx="2" cy="2" r="2" transform="translate(1210.59 281.346)" fill="#fff"/><circle cx="1.5" cy="1.5" r="1.5" transform="translate(1244.59 325.346)" fill="#fff"/><circle cx="1.5" cy="1.5" r="1.5" transform="translate(1299.59 329.346)" fill="#fff"/><circle cx="2" cy="2" r="2" transform="translate(1343.59 316.346)" fill="#fff"/><circle cx="1.5" cy="1.5" r="1.5" transform="translate(1292.59 205.346)" fill="#fff"/><circle cx="1.5" cy="1.5" r="1.5" transform="translate(1337.59 202.346)" fill="#fff"/><circle cx="1.5" cy="1.5" r="1.5" transform="translate(1399.59 202.346)" fill="#fff"/><circle cx="2" cy="2" r="2" transform="translate(1343.59 240.346)" fill="#fff"/></g><path d="M8052.4,260.277s-247.823,4.218-251.808,0c.3-4.743,25.971-4.893,40.274-7.152s24.841-.376,30.111-4.517,10.916-9.033,21.079-8.657,25.646,5.814,29.41,2.426S7940.78,227.6,7940.78,227.6s12.249-8.728,32.2-1.2,25.762,8.941,33.29,6.682,16.1-12.105,24.756-13.235,11.712-3.271,32.038,10.279,27.541,12.176,35.445,9.823,16.652-6.152,27.944,3.54,28.514,17.256,12.706,16.785S8052.4,260.277,8052.4,260.277Z" transform="translate(-6445.147 29.848)" fill="#f0eee7"/><g transform="translate(3)"><path d="M-4434.97,513.656s95.189-25.742,212.238-59.7,195.115-74.5,250.408-74.008c26.974.239,44.582,4.566,55.54,8.934a50.057,50.057,0,0,1-11.53,29.414l-193.972,143.971-65.61,48.081Z" transform="translate(5606.926 197.371)" fill="url(#a)"/><path d="M-4278.659,634.084l-283.832-207.474a49.927,49.927,0,0,1-17.785-24.133c27.474,13.46,258.151,123.03,498.646,129a5.012,5.012,0,0,1,.2,1.577l-138.215,101.032a49.933,49.933,0,0,1-29.506,9.635A49.929,49.929,0,0,1-4278.659,634.084Z" transform="translate(5608.857 194.754)" fill="url(#b)"/><path d="M441.506,26.657A149.241,149.241,0,0,1,468.2,24.231c26.974.239,44.582,4.566,55.54,8.934A50.057,50.057,0,0,1,512.21,62.58L488.045,80.515A265.229,265.229,0,0,1,441.506,26.657Z" transform="translate(1169.403 552.088)" fill="#d06a44"/></g></g></g></svg>